<?xml version="1.0" standalone="no"?>
<!DOCTYPE svg PUBLIC "-//W3C//DTD SVG 20010904//EN"
 "http://www.w3.org/TR/2001/REC-SVG-20010904/DTD/svg10.dtd">
<svg version="1.0" xmlns="http://www.w3.org/2000/svg"
 width="300.000000pt" height="300.000000pt" viewBox="0 0 300.000000 300.000000"
 preserveAspectRatio="xMidYMid meet">
<metadata>
Created by potrace 1.10, written by Peter Selinger 2001-2011
</metadata>
<g transform="translate(0.000000,300.000000) scale(0.100000,-0.100000)"
fill="#000000" stroke="none">
<path d="M1365 2660 c-394 -45 -735 -277 -923 -630 -204 -381 -170 -863 87
-1226 117 -166 315 -325 504 -404 348 -145 763 -118 1075 71 244 148 434 384
521 649 54 161 74 374 52 530 -73 493 -452 893 -945 995 -94 19 -270 26 -371
15z m247 -40 c321 -31 615 -196 808 -452 79 -104 163 -277 197 -403 23 -88 26
-119 27 -265 0 -148 -2 -176 -27 -275 -90 -357 -352 -663 -678 -794 -163 -65
-225 -76 -439 -76 -180 1 -203 3 -295 28 -137 37 -319 128 -423 213 -196 157
-330 367 -400 623 -24 87 -26 113 -26 276 1 200 11 257 78 422 72 176 218 364
375 484 144 110 372 198 561 218 117 12 132 12 242 1z"/>
<path d="M1544 2476 c-1 -46 -7 -93 -13 -105 -11 -19 -9 -21 17 -21 26 0 28 3
24 28 -2 15 0 43 5 62 l9 35 25 -67 c21 -60 43 -88 56 -74 3 3 13 50 22 105
l17 100 -23 4 c-22 4 -23 1 -23 -55 0 -33 -4 -57 -8 -54 -5 3 -17 30 -27 60
-13 39 -24 56 -36 56 -10 0 -23 2 -31 5 -10 4 -13 -13 -14 -79z"/>
<path d="M1367 2531 c4 -18 -18 -135 -33 -175 -5 -12 0 -16 20 -16 21 0 26 5
26 25 0 21 5 25 30 25 23 0 30 -4 30 -20 0 -16 7 -20 36 -20 20 0 34 3 32 8
-28 56 -70 150 -74 168 -5 19 -13 24 -39 24 -28 0 -32 -3 -28 -19z m52 -91 c9
-28 8 -30 -13 -30 -19 0 -22 4 -18 30 2 17 8 30 12 30 4 0 13 -13 19 -30z"/>
<path d="M1746 2483 c-4 -26 -15 -73 -26 -103 -10 -30 -17 -56 -16 -57 1 -2
30 -6 64 -9 60 -7 62 -6 92 26 23 25 30 41 30 74 0 54 -21 83 -71 96 -22 6
-46 13 -53 16 -9 4 -15 -9 -20 -43z m94 -54 c0 -42 -20 -79 -47 -85 -31 -8
-35 -3 -24 32 6 16 15 49 21 72 11 43 12 43 31 26 10 -9 19 -30 19 -45z"/>
<path d="M1090 2484 c-12 -4 -14 -23 -12 -112 2 -59 5 -109 7 -110 2 -2 13 -1
24 3 16 5 19 12 15 34 -5 25 -2 29 22 35 27 7 49 -8 38 -26 -7 -11 9 -10 40 2
l26 10 -62 84 c-35 47 -67 85 -73 84 -5 0 -17 -2 -25 -4z m56 -119 c-1 -5 -10
-11 -19 -13 -14 -3 -17 4 -17 35 l0 38 20 -25 c11 -14 18 -29 16 -35z"/>
<path d="M880 2370 c-14 -11 -20 -20 -13 -20 10 0 96 -125 105 -152 2 -6 24 2
48 18 25 15 46 29 48 29 1 1 -3 17 -10 36 l-12 34 -8 -31 c-15 -57 -34 -50
-81 31 -23 41 -44 74 -47 74 -3 1 -16 -8 -30 -19z"/>
<path d="M2028 2379 c-35 -13 -68 -67 -68 -112 0 -27 7 -41 31 -61 34 -29 74
-34 83 -10 9 24 8 25 -17 19 -32 -8 -62 25 -51 57 18 59 61 91 89 68 8 -7 15
-21 15 -31 0 -25 8 -24 29 3 18 21 17 22 -9 44 -33 28 -67 36 -102 23z"/>
<path d="M2190 2291 c0 -6 -22 -36 -50 -67 -54 -62 -61 -89 -30 -121 43 -47
62 -42 156 39 50 44 51 45 34 66 -20 24 -30 28 -30 11 0 -6 -19 -33 -42 -60
-45 -53 -80 -63 -86 -23 -3 24 72 114 96 114 12 0 10 5 -8 25 -24 26 -40 32
-40 16z"/>
<path d="M749 2264 c-12 -13 -18 -24 -12 -24 11 0 73 -144 73 -167 0 -17 10
-16 32 3 17 16 17 18 0 30 -16 12 -15 14 7 38 23 24 26 25 43 9 17 -15 19 -15
38 2 22 20 26 35 10 35 -6 0 -46 22 -89 49 l-79 49 -23 -24z m101 -85 c0 -7
-31 -22 -35 -17 -1 2 -6 13 -9 26 -7 21 -6 21 18 11 14 -7 26 -16 26 -20z"/>
<path d="M1269 2099 c-35 -40 -75 -82 -88 -93 -114 -100 -109 -98 -149 -60
-58 54 -51 57 -202 -95 -77 -77 -140 -144 -140 -151 0 -22 46 14 163 129 93
91 120 113 127 101 5 -8 40 -57 79 -109 62 -83 79 -111 68 -111 -2 0 -32 22
-67 49 -73 57 -72 57 -126 -23 -38 -57 -37 -71 4 -35 59 54 53 54 144 5 47
-26 90 -46 96 -46 6 0 0 22 -14 51 -14 28 -24 53 -21 55 2 3 21 -5 40 -16 20
-12 44 -20 52 -18 12 2 -3 24 -54 79 l-70 76 55 54 c30 30 81 84 112 122 63
76 79 73 69 -13 -6 -46 -5 -48 50 -101 l55 -54 -22 45 -23 45 23 -20 c12 -11
60 -69 106 -129 84 -108 101 -120 65 -46 -22 45 -20 48 17 21 44 -31 132 -81
132 -75 0 4 -12 44 -26 91 -14 46 -24 86 -22 89 3 2 26 -28 52 -66 56 -82 59
-84 86 -70 19 10 19 13 5 33 -23 33 -18 40 15 17 l29 -21 35 23 c20 13 35 26
33 29 -1 3 -21 22 -45 44 -34 31 -46 36 -63 29 -18 -8 -33 3 -104 75 l-83 85
-53 -52 c-43 -41 -52 -53 -41 -63 10 -11 20 -6 51 25 l38 37 6 -30 c4 -17 2
-43 -3 -57 -7 -17 -7 -38 0 -63 22 -79 19 -77 -195 164 -53 61 -105 111 -115
113 -12 2 -40 -22 -81 -69z m162 -61 c17 -18 45 -51 62 -72 l31 -39 -48 37
c-26 20 -56 36 -66 36 -19 0 -29 23 -22 53 6 23 8 22 43 -15z m344 -111 c31
-28 63 -43 72 -33 3 3 14 1 25 -5 24 -13 13 -32 -13 -24 -11 4 -27 1 -35 -6
-12 -10 -24 -3 -71 44 -32 32 -52 60 -48 67 7 12 16 7 70 -43z m-220 -29 c23
-20 36 -56 15 -43 -12 8 -53 65 -46 65 3 0 17 -10 31 -22z"/>
<path d="M2340 2149 c0 -14 -88 -91 -132 -115 -15 -8 -15 -11 2 -31 l18 -23
32 30 c18 17 35 29 37 26 2 -2 -6 -22 -18 -45 l-22 -42 28 -57 c15 -31 29 -58
30 -60 2 -2 20 9 40 23 48 32 59 23 17 -15 -32 -29 -40 -62 -22 -90 5 -8 10
-10 10 -4 0 6 13 27 28 47 27 33 30 35 45 20 13 -14 21 -14 42 -5 45 21 51 52
21 117 -26 54 -28 55 -44 37 -22 -25 -143 -75 -154 -64 -4 4 0 26 9 49 15 35
22 40 46 39 21 -1 35 7 50 26 17 23 18 31 8 55 -17 39 -71 101 -71 82z m35
-79 c9 -27 -1 -40 -30 -40 -34 0 -40 18 -13 40 29 25 35 25 43 0z m105 -179
c0 -24 -25 -45 -45 -37 -22 8 -18 31 8 44 32 15 37 14 37 -7z"/>
<path d="M623 2128 c-31 -35 -35 -58 -17 -86 14 -22 20 -24 58 -17 72 12 91
11 91 -5 0 -8 -15 -22 -33 -31 l-32 -17 26 -17 c14 -9 27 -15 28 -13 1 2 12
16 24 32 30 39 29 91 -2 111 -22 14 -27 14 -65 -1 -22 -9 -49 -13 -58 -9 -16
6 -16 8 6 26 13 10 31 19 40 19 13 1 13 3 -3 15 -27 20 -39 19 -63 -7z"/>
<path d="M2028 2013 c0 -4 -2 -12 -3 -18 -1 -5 -5 -18 -10 -28 -4 -10 -5 -21
-1 -24 3 -3 1 -12 -5 -19 -17 -21 -3 -44 26 -44 28 0 46 27 25 40 -7 4 -9 16
-5 29 4 13 2 21 -5 21 -7 0 -9 8 -5 19 3 11 1 22 -5 26 -5 3 -11 3 -12 -2z"/>
<path d="M1227 1923 c-44 -67 -48 -87 -9 -49 24 22 58 94 49 103 -2 1 -20 -23
-40 -54z"/>
<path d="M503 1930 c-8 -23 -8 -30 0 -30 16 0 137 -116 137 -131 0 -7 -9 -9
-23 -5 -12 3 -47 10 -77 17 -30 6 -61 16 -68 22 -15 12 -17 10 -25 -23 -5 -21
1 -29 40 -54 50 -32 47 -39 -24 -51 -26 -4 -43 -12 -43 -20 0 -7 -3 -21 -7
-31 -5 -14 -3 -16 11 -11 19 7 154 -20 172 -34 10 -8 23 16 24 41 0 3 -23 6
-51 7 -61 2 -93 22 -38 24 18 1 48 4 64 8 l30 6 -57 39 c-32 21 -58 39 -58 41
0 7 104 -25 113 -34 7 -7 16 7 28 42 23 65 23 64 -1 70 -24 6 -26 26 -6 53 12
16 18 17 35 7 17 -10 22 -9 36 13 9 14 15 27 13 28 -2 2 -41 8 -88 15 -47 7
-94 15 -105 17 -15 4 -23 -2 -32 -26z m115 -35 c1 -1 0 -9 -4 -18 -5 -15 -8
-15 -30 1 -31 23 -30 34 4 26 15 -4 28 -8 30 -9z"/>
<path d="M1960 1823 c-50 -39 -131 -83 -155 -83 -8 0 -15 -4 -15 -8 0 -16 25
-32 50 -32 18 0 34 -10 48 -30 l23 -30 122 0 123 0 29 30 c16 17 36 30 45 30
19 0 60 28 60 41 0 6 -8 8 -19 4 -21 -6 -117 41 -173 86 -49 38 -82 37 -138
-8z m149 -44 c41 -27 59 -44 51 -49 -6 -4 -62 -6 -123 -5 -135 3 -129 3 -125
14 5 14 101 79 118 80 8 0 44 -18 79 -40z m-59 -99 c-12 -22 -30 -18 -30 6 0
8 9 14 20 14 18 0 19 -3 10 -20z"/>
<path d="M1348 1838 c21 -21 13 -50 -28 -94 -45 -49 -49 -73 -19 -115 31 -45
47 -38 42 19 -4 42 -2 50 26 76 38 36 40 74 8 104 -24 23 -51 32 -29 10z"/>
<path d="M2488 1754 c-38 -39 -52 -47 -86 -48 -40 -1 -40 -1 -35 -31 3 -16 7
-31 7 -32 1 -1 22 5 46 13 41 14 48 14 100 -5 32 -12 59 -21 62 -21 2 0 3 12
0 28 -3 23 -8 27 -38 28 -18 0 -37 4 -41 7 -8 9 38 43 51 39 5 -2 6 7 2 20 -3
13 -6 29 -6 36 0 21 -14 14 -62 -34z"/>
<path d="M840 1728 l-55 -49 40 6 c22 4 41 8 41 8 6 6 34 81 32 83 -2 1 -28
-20 -58 -48z"/>
<path d="M1375 1650 c0 -34 2 -38 14 -26 8 9 11 24 7 40 -10 39 -21 31 -21
-14z"/>
<path d="M1549 1571 l-64 -60 110 0 c107 -1 156 5 154 18 0 8 -104 90 -122 97
-8 2 -41 -21 -78 -55z"/>
<path d="M1904 1602 c5 -14 -14 -28 -87 -70 -58 -33 -100 -51 -114 -49 -14 3
-23 -1 -23 -9 0 -18 49 -54 74 -54 12 0 39 -18 61 -40 l39 -40 176 0 176 0 44
45 c31 32 52 45 72 45 17 0 33 9 43 23 15 21 14 22 -9 25 -14 2 -63 25 -108
51 -67 39 -83 52 -81 70 3 21 0 21 -133 21 -125 0 -135 -1 -130 -18z m226 -22
c0 -5 -16 -10 -35 -10 -19 0 -35 -4 -35 -9 0 -5 16 -30 36 -56 27 -36 31 -46
17 -43 -10 2 -31 27 -46 56 -28 52 -28 52 -77 52 -27 0 -52 5 -55 10 -4 6 30
10 94 10 61 0 101 -4 101 -10z m-118 -51 c9 -5 26 -25 38 -44 12 -19 26 -35
31 -35 5 0 9 -4 9 -10 0 -5 -14 -3 -32 4 -19 8 -41 11 -53 6 -15 -5 -150 -6
-217 -1 -23 2 0 25 60 60 57 34 73 39 107 34 22 -3 47 -10 57 -14z m165 -1
c21 -13 51 -30 67 -38 44 -22 45 -40 1 -40 -20 0 -45 -4 -55 -10 -13 -7 -21
-6 -30 5 -7 8 -10 15 -6 15 3 0 -3 14 -13 31 -11 18 -17 38 -14 45 7 18 5 18
50 -8z m-304 -134 c6 -31 -3 -30 -36 4 l-27 29 29 -5 c21 -3 30 -11 34 -28z
m356 9 c-13 -16 -25 -30 -26 -32 -2 -2 -3 7 -3 22 0 23 10 32 44 36 5 0 -1
-11 -15 -26z m-281 -5 c-2 -13 -9 -23 -17 -23 -7 0 -17 10 -22 23 -7 19 -5 22
17 22 21 0 25 -4 22 -22z m104 -4 c-4 -20 -9 -25 -31 -22 -18 2 -27 10 -29 26
-3 19 1 22 31 22 31 0 34 -2 29 -26z m99 4 c-12 -32 -31 -34 -31 -4 0 19 5 26
20 26 16 0 18 -4 11 -22z"/>
<path d="M1267 1573 c-14 -14 -6 -45 13 -50 36 -9 21 -20 -34 -25 -92 -8 -262
-104 -296 -169 -10 -19 -1 -19 392 -19 l403 1 -64 61 c-75 71 -170 120 -248
126 -54 5 -68 16 -33 27 23 7 26 25 8 43 -13 13 -130 17 -141 5z m89 -48 c-6
-16 29 -55 49 -55 8 0 15 -4 15 -10 0 -15 -11 -12 -45 10 -16 11 -38 20 -47
20 -11 0 -16 6 -13 15 3 8 7 22 10 30 2 9 11 12 20 9 9 -4 14 -12 11 -19z
m-129 -102 c8 -21 17 -40 18 -41 2 -2 20 15 40 37 21 23 41 41 46 41 5 0 26
-18 48 -40 21 -22 41 -40 45 -40 3 0 13 18 22 40 9 22 18 40 21 40 2 0 28 -18
57 -40 52 -39 73 -50 61 -30 -10 16 8 11 34 -11 13 -11 21 -22 18 -25 -11 -12
-79 10 -118 38 -22 16 -42 28 -44 26 -1 -2 -10 -18 -19 -35 -9 -18 -22 -33
-29 -33 -7 0 -28 16 -47 35 -19 19 -39 35 -45 35 -6 0 -26 -16 -45 -35 -19
-19 -40 -35 -47 -35 -8 0 -21 16 -29 35 -16 39 -25 43 -45 18 -29 -34 -139
-69 -139 -44 0 9 44 41 55 41 4 0 3 -4 0 -10 -13 -21 12 -9 60 29 28 22 54 40
58 40 4 1 15 -16 24 -36z"/>
<path d="M497 1395 c-18 -18 -13 -40 11 -50 23 -9 49 21 36 42 -15 24 -29 26
-47 8z"/>
<path d="M2462 1338 c-25 -25 0 -64 32 -52 21 8 21 50 0 58 -20 8 -18 8 -32
-6z"/>
<path d="M1844 1298 c10 -14 16 -44 16 -76 0 -48 -2 -53 -19 -47 -15 5 -24 -1
-35 -24 -9 -17 -16 -32 -16 -36 0 -3 115 -5 255 -5 140 0 255 3 255 6 0 3 -12
19 -27 35 -20 21 -33 27 -50 23 -22 -6 -23 -4 -23 52 0 39 5 63 17 76 16 17 9
18 -186 18 l-202 0 15 -22z m216 -68 c0 -47 -3 -60 -15 -60 -11 0 -15 12 -15
45 l0 45 -45 0 -45 0 0 -45 c0 -33 -4 -45 -15 -45 -12 0 -15 13 -15 60 l0 60
75 0 75 0 0 -60z m80 0 c0 -47 -3 -60 -15 -60 -12 0 -15 13 -15 60 0 47 3 60
15 60 12 0 15 -13 15 -60z m-138 -62 c7 -15 4 -18 -21 -18 l-30 0 17 30 c9 16
19 24 21 17 2 -6 8 -20 13 -29z"/>
<path d="M862 1282 c-8 -5 -12 -18 -10 -28 3 -18 21 -19 483 -19 l480 0 3 23
3 22 -438 0 c-241 0 -454 3 -473 5 -19 3 -41 2 -48 -3z"/>
<path d="M528 1208 c-35 -11 -58 -25 -58 -34 0 -8 3 -14 8 -14 18 1 123 37
123 43 -1 4 -1 12 -1 17 0 12 -2 12 -72 -12z"/>
<path d="M2387 1193 c-3 -15 -8 -35 -12 -44 -5 -12 8 -21 55 -38 34 -13 63
-21 64 -19 5 6 26 71 26 79 0 21 -28 7 -34 -16 -4 -14 -13 -25 -21 -25 -18 0
-18 5 -5 31 8 15 7 19 -4 19 -8 0 -18 -9 -21 -20 -9 -30 -25 -14 -22 22 3 39
-18 48 -26 11z"/>
<path d="M914 1172 c15 -93 102 -209 185 -247 22 -9 41 -26 44 -36 5 -18 17
-19 192 -19 169 0 187 2 192 18 2 9 23 26 46 37 86 40 165 145 181 240 l7 40
-426 0 -427 0 6 -33z m107 -19 c15 -19 23 -24 26 -15 3 7 16 18 30 23 36 14
75 -13 71 -48 -3 -29 -38 -56 -45 -36 -7 18 -4 28 7 28 6 0 10 3 10 8 0 4 0
12 0 17 0 6 -8 10 -18 10 -47 0 -58 -66 -16 -99 35 -27 96 -27 139 -1 19 11
50 43 71 70 21 28 41 50 44 50 4 0 13 -12 21 -26 7 -15 36 -46 62 -70 42 -37
56 -44 92 -44 47 0 89 26 98 60 7 27 -24 65 -46 57 -19 -7 -24 -38 -6 -35 18
5 22 -21 5 -28 -35 -14 -62 46 -34 74 19 19 65 14 88 -10 15 -16 20 -18 20 -6
0 23 37 51 57 44 15 -6 14 -9 -7 -19 -14 -7 -31 -30 -40 -53 -24 -66 -47 -92
-89 -105 -65 -19 -106 -5 -169 58 l-56 56 -36 -41 c-68 -78 -135 -100 -206
-66 -26 12 -41 31 -64 81 -19 40 -39 67 -50 70 -11 3 -17 9 -14 14 10 17 32 9
55 -18z m443 -8 c2 -7 -2 -21 -9 -32 -14 -17 -14 -17 -15 5 0 13 -6 22 -15 22
-18 0 -20 17 -2 23 17 6 34 -2 41 -18z m-199 5 c3 -5 -3 -10 -14 -10 -15 0
-21 -7 -21 -22 -1 -21 -2 -21 -11 -5 -6 10 -8 25 -5 33 6 16 42 19 51 4z m89
-117 c4 -9 2 -21 -4 -27 -13 -13 -46 17 -36 33 11 16 33 13 40 -6z m-82 -66
c-16 -15 -27 -18 -49 -12 l-28 8 32 8 c18 5 35 14 38 19 4 6 11 7 17 4 6 -4 2
-14 -10 -27z m195 2 c15 0 14 -2 -5 -11 -27 -14 -72 3 -72 27 0 14 3 14 30 0
16 -8 37 -15 47 -16z m-86 -15 c22 -26 52 -33 81 -18 15 8 37 14 50 14 23 -1
23 -1 -5 -25 -28 -25 -31 -25 -177 -22 -140 2 -151 4 -172 25 l-22 22 29 0
c17 0 38 -7 48 -14 22 -17 61 -10 83 15 21 23 67 25 85 3z"/>
<path d="M548 1138 c-27 -11 -48 -27 -48 -34 0 -18 14 -18 50 1 37 19 37 13 5
-29 -26 -35 -31 -51 -16 -60 11 -7 121 41 121 52 0 20 -15 20 -51 1 -22 -11
-39 -17 -39 -14 0 4 14 24 31 45 30 37 32 61 6 59 -7 0 -33 -10 -59 -21z"/>
<path d="M2350 1086 c0 -7 14 -19 30 -26 47 -20 44 -27 -9 -22 -72 7 -73 -16
-1 -56 45 -25 59 -29 63 -18 4 9 -5 19 -24 26 -42 18 -36 33 11 28 28 -2 41 1
45 11 7 17 11 13 -52 45 -61 30 -63 31 -63 12z"/>
<path d="M1977 1073 c-159 -5 -125 -23 41 -22 157 1 218 11 138 22 -27 4 -54
6 -60 5 -6 -1 -60 -4 -119 -5z"/>
<path d="M613 998 l-53 -30 21 -29 c28 -39 63 -47 97 -22 32 24 38 45 22 84
-15 36 -22 36 -87 -3z m65 -31 c4 -18 -33 -41 -54 -33 -21 8 -17 32 9 44 27
13 41 10 45 -11z"/>
<path d="M1775 1000 c28 -12 203 -12 210 0 4 6 -36 10 -112 9 -75 0 -111 -4
-98 -9z"/>
<path d="M2286 983 c-12 -13 -5 -22 44 -57 46 -33 70 -39 70 -17 0 12 -107 81
-114 74z"/>
<path d="M700 894 c-25 -20 -45 -40 -44 -45 1 -5 2 -14 3 -19 0 -6 25 8 55 32
51 40 63 58 40 64 -5 2 -29 -13 -54 -32z"/>
<path d="M2231 904 c-16 -20 -18 -31 -10 -45 10 -20 53 -26 64 -9 8 13 35 13
35 0 0 -6 -11 -15 -25 -20 -26 -10 -32 -24 -15 -35 15 -9 57 20 65 46 5 14 1
27 -9 37 -14 14 -21 14 -52 3 -41 -15 -56 -9 -25 11 12 7 21 18 21 25 0 22
-28 14 -49 -13z"/>
<path d="M745 834 c-51 -24 -68 -51 -28 -46 23 3 38 -13 38 -42 0 -39 22 -25
49 33 41 85 28 97 -59 55z"/>
<path d="M1120 840 c-8 -5 -43 -10 -77 -10 -34 0 -64 -4 -68 -9 -12 -20 77
-26 365 -26 283 0 370 6 370 25 0 19 -563 38 -590 20z"/>
<path d="M2164 829 c-3 -6 13 -31 37 -55 33 -34 46 -41 56 -32 11 9 6 19 -29
55 -45 45 -53 50 -64 32z"/>
<path d="M2121 791 c-12 -8 -9 -16 17 -45 31 -35 34 -66 7 -66 -7 0 -27 16
-45 36 -22 25 -35 33 -42 26 -16 -16 49 -92 79 -92 25 0 63 32 63 53 0 10 -57
97 -63 97 -1 0 -8 -4 -16 -9z"/>
<path d="M836 745 c-25 -31 -36 -52 -31 -63 5 -14 11 -11 36 18 l30 35 -6 -51
c-9 -72 11 -76 59 -12 27 37 34 54 26 62 -8 8 -17 2 -35 -19 l-24 -30 2 49 c1
27 -3 50 -8 53 -6 2 -28 -17 -49 -42z"/>
<path d="M1986 689 c-15 -12 -26 -30 -26 -45 0 -30 41 -74 70 -74 23 0 60 33
60 55 0 21 -19 19 -38 -6 -20 -24 -48 -17 -58 14 -7 21 21 52 37 41 5 -3 9 4
9 15 0 27 -20 27 -54 0z"/>
<path d="M1036 614 c-24 -53 -26 -74 -6 -74 4 0 14 15 20 33 l13 32 10 -47 c5
-27 14 -48 21 -48 6 0 23 27 38 59 21 49 23 61 12 65 -14 5 -34 -29 -34 -56 0
-26 -14 6 -19 44 -3 23 -11 43 -18 45 -6 2 -23 -21 -37 -53z"/>
<path d="M946 653 c-11 -11 -6 -18 23 -36 25 -15 30 -15 35 -2 6 16 -46 50
-58 38z"/>
<path d="M1828 618 c-33 -11 -33 -15 -11 -82 10 -28 18 -52 18 -53 1 -1 18 3
38 9 46 14 52 43 7 33 -23 -5 -30 -3 -30 9 0 10 9 16 21 16 12 0 19 5 16 13
-2 7 -16 11 -32 9 -33 -4 -30 21 4 26 12 2 20 9 18 15 -5 15 -18 17 -49 5z"/>
<path d="M1163 555 l-20 -63 37 -11 c47 -14 50 -14 50 3 0 8 -11 17 -25 20
-32 8 -33 30 -1 24 30 -6 44 18 15 25 -10 3 -19 11 -19 17 0 8 9 10 24 6 16
-4 26 -1 29 8 4 10 -6 17 -32 24 l-38 9 -20 -62z"/>
<path d="M1272 543 c-6 -26 -14 -56 -17 -66 -6 -13 -2 -17 14 -17 15 0 21 6
21 21 0 15 4 19 16 15 24 -9 54 12 54 38 0 27 -15 42 -52 51 -25 6 -27 4 -36
-42z m56 -6 c2 -10 -3 -17 -12 -17 -10 0 -16 9 -16 21 0 24 23 21 28 -4z"/>
<path d="M1712 581 c-25 -16 -10 -55 26 -66 38 -11 37 -30 -1 -30 -41 0 -37
-20 5 -23 32 -3 40 1 49 22 15 31 -2 56 -37 56 -12 0 -26 5 -29 10 -6 10 7 14
31 11 7 -1 14 5 18 14 4 11 -2 15 -22 15 -15 0 -33 -4 -40 -9z"/>
<path d="M1624 573 c-33 -4 -33 -5 -18 -101 5 -31 7 -33 42 -30 25 2 37 8 37
18 0 10 -8 14 -27 12 -20 -3 -28 1 -28 12 0 9 8 16 20 16 11 0 20 6 20 14 0 9
-7 12 -20 9 -14 -4 -20 0 -20 11 0 9 8 16 20 16 11 0 20 7 20 15 0 8 -3 14 -7
13 -5 0 -22 -3 -39 -5z"/>
<path d="M1383 508 c-25 -53 -27 -64 -14 -67 8 -2 17 2 19 8 5 16 49 13 56 -4
3 -8 13 -15 22 -15 10 0 14 5 10 15 -3 9 -13 40 -22 70 -9 31 -21 55 -29 55
-7 0 -26 -28 -42 -62z"/>
<path d="M1500 500 l0 -70 40 0 c29 0 40 4 40 15 0 9 -9 15 -25 15 -23 0 -25
3 -25 49 0 34 -4 51 -15 55 -12 4 -15 -6 -15 -64z"/>
</g>
</svg>
