<?xml version="1.0" encoding="UTF-8" standalone="no"?>
<!-- Created with Inkscape (http://www.inkscape.org/) -->

<svg
   version="1.1"
   id="svg1"
   width="922.4917"
   height="921.01813"
   viewBox="0 0 922.49168 921.01811"
   xmlns="http://www.w3.org/2000/svg"
   xmlns:svg="http://www.w3.org/2000/svg">
  <defs
     id="defs1">
    <clipPath
       clipPathUnits="userSpaceOnUse"
       id="clipPath7">
      <ellipse
         style="fill:#ff0000"
         id="ellipse7"
         cx="796.5412"
         cy="806.20953"
         rx="594.94025"
         ry="577.31238" />
    </clipPath>
    <clipPath
       clipPathUnits="userSpaceOnUse"
       id="clipPath9">
      <ellipse
         style="fill:#ff0000;stroke-width:1.10861"
         id="ellipse9"
         cx="808.74689"
         cy="812.69397"
         rx="461.24585"
         ry="460.50903" />
    </clipPath>
  </defs>
  <g
     id="g1"
     transform="translate(-347.50104,-352.18493)"
     clip-path="url(#clipPath9)">
    <path
       style="fill:#5a1a08;stroke:none"
       d="m 771,178.42444 c -37.45593,4.91748 -74.82129,5.70935 -112,14.22681 C 534.53174,221.16638 421.44934,283.17859 334.08951,377 277.44781,437.83118 233.51157,509.79114 203.20293,587 99.349266,851.55896 205.99376,1168.0074 439,1326.8055 c 130.42737,88.8887 292.81415,125.9457 449,104.9059 63.47931,-8.5512 125.9882,-26.6446 184,-54.0093 C 1307.6541,1266.5427 1451.6042,1013.3333 1433.9105,755 1415.9695,493.05542 1216.278,266.63489 966,198.84875 916.58057,185.46387 865.19391,178 814,178 c -14.08496,0 -29.03064,-1.40955 -43,0.42444 m -6,21.86108 C 779.9729,198.5188 795.92352,200 811,200 c 59.14563,0 117.4928,9.14258 174,26.80859 72.6626,22.71668 139.2574,58.77954 199,105.85266 49.525,39.02247 92.76,86.88282 127.6666,139.33875 41.3367,62.11877 71.3177,130.26385 88.098,203 57.3454,248.56805 -62.4172,516.2234 -276.7646,650.4243 -72.7933,45.5753 -156.71851,75.1619 -242,85.2902 -139.70679,16.592 -280.97278,-10.8371 -402,-83.9182 C 274.37659,1203.2363 149.66495,947.79663 192.46297,710 206.26054,633.33716 232.87175,560.79236 273.2037,494 314.57864,425.48047 368.98032,365.48621 433,317.47534 495.64615,270.49451 569.76709,235.6687 646,217.6543 c 39.56067,-9.34851 78.87585,-12.63452 119,-17.36878 M 822,238 c 1.26898,4.6698 5.02026,8.13965 5.78625,13 2.88044,18.27722 -3.51123,42.79651 -6.37652,61 -1.08905,6.9187 -1.07605,14.29749 -3.18445,20.99927 -0.84241,2.67773 -4.90308,7.03967 -4.3194,9.77612 0.94324,4.422 26.2389,7.24158 27.21289,2.90674 0.93647,-4.16773 -4.16082,-10.69898 -4.10028,-15.68213 0.18702,-15.38928 3.12995,-34.11328 6.98151,-49 h 1 c 1.71222,16.7345 13.57574,35.24072 19.57562,51 2.13721,5.61353 4.20606,15.38818 8.84259,19.41125 C 877.73462,355.15649 886.60937,354.98511 892,355 L 901.56171,294 911,247 885,242 887.7901,257 882,303 h -2 c -1.5658,-15.30334 -12.46527,-32.66406 -18.19983,-47 -1.7616,-4.40393 -3.45203,-13.11719 -7.4491,-15.97229 C 848.45251,235.81433 829.34473,238 822,238 m -94,3 c 0.57184,4.2998 3.66028,7.74292 3.96606,12 0.55304,7.6991 -2.85467,16.50439 -4.36572,24 -3.56781,17.69836 -7.41235,35.3103 -11,53 -1.21795,6.00537 -6.53461,13.2146 -6.7724,18.85181 -0.22449,5.32092 23.50757,2.72522 26.54938,0.12121 2.95831,-2.53247 -1.34015,-7.21655 -1.9082,-9.97302 -0.73987,-3.59009 1.01049,-7.46057 1.53088,-11 l 31,-1 -1,19 39,-1 c -1.10632,-7.17468 -7.6001,-14.15955 -10.57562,-21 -8.25501,-18.97754 -17.00019,-37.84912 -24.82099,-57 -2.73266,-6.69153 -6.05737,-22.8479 -12.10266,-26.97156 C 751.68774,236.06323 735.02692,240.98059 728,241 m 206,10 0.63733,14 -12.79169,51 -8.23376,29 L 906,359 c 22.02258,3.23792 43.50586,15.27319 66,8.56018 35.3604,-10.55261 51.3954,-65.81726 24.82642,-92.3866 C 980.92798,259.2749 954.39655,257.63464 934,251 M 578,397 c 4.73621,-1.58911 24.26105,-7.823 25.07867,-13.11963 0.48475,-3.14014 -4.5559,-5.49206 -5.89965,-7.97375 C 594.93695,371.76575 596,365.56042 596,361 c 8.44257,-1.24695 19.48022,-9.50647 27.69983,-8.61108 8.48486,0.92419 9.11334,13.87915 7.30017,19.61108 8.5188,2.33679 19.92639,-4.354 28,-7.21375 2.24261,-0.79431 7.79169,-1.72106 7.79321,-4.89038 10e-4,-3.08215 -4.33807,-5.18859 -6.32946,-6.93518 C 654.75665,347.9552 650.43237,340.9707 645.79321,335 634.85352,320.92053 624.47186,306.42187 613.9892,292 c -3.94355,-5.42554 -8.79309,-15.43311 -14.50696,-18.96838 -4.46918,-2.76514 -24.9101,4.1676 -27.73071,8.46765 -2.19489,3.34607 4.94036,10.27795 5.20452,14.50073 1.12391,17.96484 -0.27581,36.03442 0.95447,54 0.99433,14.51978 -3.84857,33.29358 0.0895,47 m 362,-46 c 0.87628,-10.04895 4.9837,-20.24707 7.52234,-30 2.77356,-10.6554 5.85815,-21.25488 8.27087,-32 0.77796,-3.46448 1.43671,-10.8667 4.71991,-12.92908 7.75525,-4.87158 19.54206,11.15406 21.27698,16.92908 8.1734,27.20703 -10.76318,64.39746 -41.7901,58 m -193,-72 13,34 h -21 c 1.27917,-9.49951 2.6095,-26.15442 8,-34 m -151,32 c 6.17688,8.49597 16.58075,19.79602 19,30 l -19,6 c -2.51099,-8.49463 -3.44153,-27.79858 0,-36 m -38,59 -7.08563,21.99609 L 535,405 493.07486,336 491,323 c -7.73438,3.6156 -14.99841,8.71912 -22,13.58643 -2.17737,1.51367 -6.65359,3.59094 -7.0787,6.55481 -0.57535,4.01135 9.00823,8.86315 11.31866,11.87341 9.58704,12.49097 16.74582,26.87451 25.42746,39.98535 5.60876,8.47021 11.64545,17.10107 16.53632,26 1.4923,2.71521 1.96362,9.17065 5.92974,9.28857 6.60163,0.19642 16.46015,-9.15771 21.86652,-12.59338 6.79401,-4.31738 21.83923,-9.23401 25.93207,-16.22449 C 572.26276,395.78198 562.30139,374.07959 558,370 m 553,44 c -7.4753,1.33264 -14.0504,6.90051 -22,5.7832 -37.293,-5.2417 -12.8145,-54.32019 4,-67.2539 12.1831,-9.37134 27.1277,-4.47876 33.1195,9.4707 2.0863,4.85718 1.8805,9.82568 1.8805,15 9.0863,-2.55017 17.4459,-14.08374 22,-22 -7.7966,-2.37512 -10.3401,-8.49756 -16.0393,-13.82642 -6.9824,-6.52856 -16.4284,-11.49926 -25.9607,-12.87341 -43.7775,-6.31079 -84.1483,52.98718 -54.4714,89.66052 7.3031,9.02491 32.6096,25.75733 45.2584,20.43213 6.2468,-2.62988 11.1483,-18.20935 12.213,-24.39282 m 61,-41 c -6.6431,30.32861 -48.3843,43.67798 -55.4714,75 -6.8411,30.23425 27.4904,56.28223 54.4714,41.33411 14.3649,-7.9585 27.2401,-21.83142 38.5139,-33.65894 8.2969,-8.70434 14.7765,-17.6654 27.4861,-17.67517 -3.3229,-9.79321 -13.8087,-18.7887 -21,-26 h -1 c -1.6072,3.25244 -1.2095,6.78174 -2.8434,10 -3.7983,7.48145 -11.4483,12.87903 -16.9868,19 -6.1107,6.75354 -12.6709,13.09558 -18.7061,19.91052 -5.2716,5.95276 -11.3526,13.41333 -19.4637,15.43286 -9.2483,2.30262 -17.483,-10.24426 -16.8118,-18.34338 0.7154,-8.63098 7.196,-14.89612 12.6459,-21 12.0801,-13.52942 27.7977,-36.99792 47.1659,-37 -2.6342,-9.3855 -18.5664,-24.4303 -28,-27 m -783,31 c 14.02927,5.9696 16.41113,17.29333 21.79706,31 9.06601,23.07214 19.6752,45.81787 25.20294,70 6.24173,-3.76965 15.86063,-12.34106 18.95294,-18.99536 3.10626,-6.68421 -11.55408,-10.22498 -10.44986,-19.00464 0.59735,-4.74951 6.14176,-8.67615 9.49692,-11.57483 11.48666,-9.92371 21.34149,-11.80127 26,5.57483 11.2775,-4.36877 26.07736,-17.30444 29,-29 -11.10419,1.78101 -17.62067,-4.03833 -27,-9.42139 -15.81488,-9.07666 -31.36737,-18.64306 -47,-28.02771 -5.29431,-3.17834 -15.71512,-12.72961 -22,-12.38733 -7.18417,0.39124 -20.5314,15.99512 -24,21.83643 m 37,16 26,17 v 1 l -15,13 c -3.71851,-6.9823 -12.34857,-23.30164 -11,-31 m -57,276 c 23.21124,-6.72998 40.44254,-24.4425 57,-41 17.32672,-17.32672 34.87506,-34.4599 51.98535,-52 8.8584,-9.08093 18.052,-17.82239 26.52469,-27.28552 2.29266,-2.56067 6.66754,-9.54004 10.36343,-9.97132 2.61841,-0.30554 4.68885,3.53138 6,5.25843 4.29053,5.65112 8.6756,11.2503 12.83332,16.99841 16.99377,23.49402 34.11425,47.08075 51.86956,70 5.11945,6.60834 10.04212,13.36737 15.13044,19.99615 1.46228,1.90503 4.42865,5.33619 2.32715,7.79786 -3.66419,4.29217 -15.01917,-7.65924 -18.03394,-9.92054 -11.66565,-8.75006 -23.60083,-17.17187 -35,-26.27313 -5.07965,-4.05566 -11.48761,-11.42456 -18,-12.88891 -6.3299,-1.42328 -13.15247,8.20275 -16.82947,12.28857 -13.61102,15.12439 -26.38235,36.20898 -34.17053,55 13.37613,-3.47705 26.88968,-18.95453 38,-27.11572 3.91577,-2.87635 9.89209,-8.40357 15,-8.53626 7.8219,-0.20324 19.24915,9.69141 26,13.34333 15.84045,8.56903 31.62061,16.79644 48,24.30865 7.76062,3.55933 15.51154,8.53833 24,10 l -23,-60 c 18.24908,10.65131 35.80225,19.91003 57,19 L 650.16589,656 613.71448,616.91125 595.68054,597 601.83411,587 622.99615,564 687.91052,494 714,465 c 1.46436,10.8656 7.18756,21.90955 6.625,33 -0.49976,9.85205 -8.20154,23.53955 -5.71295,33 1.62042,6.16016 8.77667,11.68701 13.08795,16 12.20282,12.20752 27.07922,30.90399 43,38 l -16,-40 c 27.90625,30.21655 52.73645,61.8573 78.39966,94 7.75561,9.71381 19.6131,32.14569 31.60034,36 -4.125,-17.8299 -11.65753,-35.75983 -20,-52 28.95984,17.87506 57.56445,40.71051 89,54 -1.83063,-22.38147 -12.51617,-47.58624 -19.34412,-69 -3.13421,-9.82947 -8.6007,-22.62378 -7.65588,-33 h 1 c 10.81195,21.73376 28.94043,41.66772 43.52545,61 3.84516,5.09668 10.83167,18.4729 17.56403,19.57715 C 975.80322,656.67834 987.36023,648.29175 993,645 l -16,-29 30,17.93207 12,-5.28705 L 1046,610 c -2.9679,-6.36426 -8.8895,-10.54559 -14,-15.16974 -9.4833,-8.58075 -20.6089,-26.33075 -34,-28.60565 -7.56921,-1.28589 -20.10602,7.80859 -25.42438,4.7522 C 962.49823,565.18542 953.56598,552.54932 945.83026,544 935.43915,532.51599 923.64496,522.33154 913.08948,511 907.25354,504.73499 897.90088,489.88098 889,488.41199 c -6.27094,-1.03491 -13.75287,5.97082 -18,9.76159 -14.11493,12.59839 -31.10413,27.3584 -42,42.82642 l 13,8.24927 L 853,541 881,512 h 1 l 6.80096,30 -7.77166,31 L 890,621 C 873.87659,607.05328 860.11646,589.7464 845.59027,574.1698 819.74646,546.45728 794.58447,518.10193 769.16974,490 758.73553,478.46252 748.7785,466.49146 738.48608,454.8302 734.15881,449.92749 728.76135,442.69604 722,441.34485 709.16003,438.77893 698.83081,453.70032 691.46295,461.8302 678.20581,476.45837 665.40369,491.6427 653,507 c -7.26196,8.99121 -14.37164,20.33716 -24,26.90662 -13.26733,9.05236 -25.93335,17.5039 -38,28.25927 -4.85992,4.33179 -12.14569,13.44605 -19,14.19135 -5.92651,0.64441 -11.11182,-5.69061 -15,-9.18829 -9.17908,-8.25708 -26.07117,-28.28235 -40,-25.59717 -14.11124,2.72033 -26.56702,22.62732 -36.03937,32.43213 C 453.76047,602.15875 425.69046,629.36475 398,657 c -9.15073,9.13251 -33.20203,23.55585 -29,39 m 798,-179 15.8704,20.99609 6.9205,5.54248 7.3032,-8.87268 L 1223,515 c 1.0042,17.26318 -16.4801,28.50232 -16.9413,46 -0.1717,6.51538 3.4168,13.61682 6.8178,19 3.0902,4.89124 6.221,9.78387 12.1235,11 -2.8903,-19.67188 11.2764,-34.86426 15,-54 22.8566,11.97546 50.1135,-0.5177 48.9598,-29 -0.6267,-15.47278 -11.281,-27.03479 -21.01,-38 -3.1817,-3.58606 -12.0227,-18.79321 -16.8449,-18.79321 -3.6846,0 -2.9958,6.53271 -4.1326,8.79321 -2.584,5.13806 -8.5851,9.04114 -12.9723,12.5509 -20.5302,16.42456 -41.6764,37.9784 -67,44.4491 m -801,27 v 2 c 9.36606,5.78088 19.63504,17.23853 31,18 0.12204,-10.3291 9.62839,-11.93726 15.67438,-19.01465 9.27536,-10.85766 13.43399,-28.13818 9.10495,-41.98535 -1.2316,-3.93945 -3.34668,-7.82874 -6.10803,-10.90662 -12.3025,-13.71252 -31.00379,-9.49963 -45.6713,-2.78466 -6.24182,2.85754 -13.85129,7.82141 -21,7.40893 -10.97244,-0.63306 -11.00821,-11.29602 -4.89505,-17.6737 C 352.07953,470.72424 363.22177,472.12708 373,468 368.72888,462.7522 354.08118,452.10852 347.08951,452.52783 342.58368,452.7981 337.05374,459.12292 334,462.03931 322.32892,473.18555 313.03189,488.50232 319.09335,505 c 1.35215,3.68018 3.43637,7.0741 6.09183,9.95984 13.99381,15.20727 33.37643,6.99402 49.81482,0.98694 5.76187,-2.10559 12.68909,-5.92322 19,-4.54859 11.9111,2.59449 10.95096,14.56165 3.95679,21.5586 C 388.72922,542.18811 377.70453,541.18079 366,544 m 894,-59 c 5.2716,9.03198 12.4374,24.62231 -0.04,31.4668 -7.3818,4.04931 -26.7577,1.91015 -24.9621,-10.42749 C 1236.01,499.08374 1254.3738,488.84656 1260,485 m -181,86 c -9.9105,3.38159 -16.3552,17.13385 -6.8518,25.58105 4.9445,4.39502 13.7305,4.61969 19.8479,3.22986 7.9554,-1.80743 13.8324,-14.34546 9.8248,-21.71753 -1.9426,-3.57348 -7.3147,-5.0708 -8.2947,-9.13354 -1.0208,-4.23218 3.7282,-8.39624 3.2824,-12.95593 -0.4929,-5.04065 -6.0037,-6.55713 -7.1404,-11.09729 -1.5965,-6.37671 6.9782,-16.39002 -2.7724,-20.61878 -4.6976,-2.03723 -8.4174,3.6947 -8.719,7.71216 -0.3029,4.03369 3.0379,8.00269 2.0354,11.91052 -0.8166,3.18274 -4.2748,5.20349 -5.7554,8.10413 -3.6148,7.08154 0.2551,13.40112 4.5432,18.98535 M 673,547 650.34875,582 635.06793,601 638,611 c 17.93579,-8.36426 26.83502,-27.27325 31.85956,-45 1.59393,-5.62354 4.91247,-13.23596 3.14044,-19 m 642,0 c -10.0653,21.14294 -46.3545,28.91223 -67,37.57562 -9.715,4.07666 -17.3566,8.25739 -28,7.42438 1.9181,10.75946 10.0271,23.86688 16,33 h 2 c 7.5249,-11.80585 27.0122,-20.2735 40,-25 -1.0961,9.84143 -11.5319,14.60834 -17.9607,21.03937 C 1247.2438,633.83911 1241.3916,658.96588 1258,672 L 1269.145,650.00079 1288,626 c 5.8269,5.02106 11.063,10.38593 19,11.67358 18.059,2.92975 33.1713,-14.08947 34.8295,-30.67358 1.5277,-15.27954 -7.4886,-28.41882 -14.8179,-41 -3.632,-6.23438 -5.2892,-15.50745 -12.0116,-19 M 264,586 c 11.80063,0.0339 17.87534,7.16986 25.98535,14.91052 12.48194,11.91352 25.09503,23.65344 37.05322,36.09333 3.40537,3.54254 19.01728,16.41821 13.67978,21.46759 -5.13202,4.85498 -20.55642,-1.63092 -26.71835,-2.8711 -18.34305,-3.69189 -36.76782,-7.22601 -55,-11.41589 -3.80563,-0.87457 -12.30139,-8.63983 -15.41125,-7.00855 -4.76394,2.4989 -7.88904,22.63233 -8.58875,27.8241 18.1532,4.06506 34.66269,22.56677 50,33 -18.87933,4.65112 -40.62888,11.34619 -60,11 l -5,32 14,-4.71838 33,7.06787 44,10.30255 13,9.34796 5,-31 c -21.81189,5.95361 -42.05154,-2.74353 -64,-7 v -1 L 306,717.4599 331,712 C 316.8338,693.64301 290.06268,686.58112 274,670 L 324,681.34412 338,691 347.01465,662 358,633 c -7.14072,-0.37128 -23.64359,-9.30835 -22.33023,-18 C 336.89084,606.91919 344.22,599.63696 347,592 l 15.99615,3.45679 L 373,602 391,572 c -29.34076,0.2428 -57.86465,-8.63721 -87,-12.0509 -6.96692,-0.81629 -21.12244,-7.08118 -27.58179,-4.3064 C 270.06091,558.37366 264.63971,579.61731 264,586 m 1054,-5 c 7.0292,12.36615 0.231,40.65894 -18.9854,30.82098 C 1292.6931,608.58466 1291.2595,601.05981 1289,595 l 29,-14 m -1020,3 33,6 c -1.13168,3.92834 -4.11313,13.51117 -9.09335,13.88269 C 314.79724,604.41302 302.77301,589.0188 297,585 l 1,-1 m 768.6984,24.02777 c -3.6337,2.66553 -5.8909,7.74103 -9.6991,10.76154 -21.6005,17.13232 -45.8606,34.36071 -70.9993,45.90204 -6.91229,3.17346 -15.18982,7.47277 -23,7.09954 -2.93237,-0.14013 -7.56287,-1.7575 -8.47223,2.35724 -0.99042,4.48139 3.21167,8.70783 6.05249,11.55097 10.78168,10.79059 25.8327,3.01251 36.41895,13.31634 7.63469,7.43103 15.29939,23.07288 25.17059,27.24225 8.9507,3.78058 22.4316,-0.21161 31.8302,-0.2569 21.9988,-0.10608 44.0009,-7.9e-4 66,-7.9e-4 8.5294,0 21.0021,2.2887 29,-0.85419 13.7908,-5.41925 18.8278,-22.85534 30.8696,-30.23456 9.8288,-6.02301 22.1055,-1.65679 32.115,-10.23687 2.6332,-2.2572 10.8744,-10.93701 6.3966,-14.64661 -3.2824,-2.7193 -10.4742,0.11951 -14.3812,-0.12189 -7.5426,-0.46606 -15.4465,-4.39477 -22,-7.93365 -22.0156,-11.88837 -44.3604,-23.35785 -64.9854,-37.64356 -3.5886,-2.48565 -7.0054,-5.55432 -9.2878,-9.32946 -1.3768,-2.27741 -1.4355,-6.12128 -4.0439,-7.39582 -7.0537,-3.44653 -18.8976,1.02967 -26.6829,0.11109 -3.0693,-0.36212 -7.5414,-1.71155 -10.3016,0.31329 M 718,613 c 2.92621,8.72089 9.8161,18.38837 8.63501,28 -2.8302,23.03229 -34.79797,30.92499 -42.03705,53 -5.43024,16.55902 4,31.28668 13.41669,44 3.28473,4.43463 11.30231,13.96039 17.64276,9.15198 3.77203,-2.8606 1.7334,-9.31836 1.0957,-13.15198 -1.64355,-9.88055 -4.61096,-21.11017 -1.7099,-31 7.34992,-25.05634 45.09644,-37.62494 27.91284,-68 -2.42614,-4.28864 -5.63623,-8.35358 -9.12579,-11.82947 C 729.40588,618.76349 723.96509,614.88831 718,613 m 551,114 c 3.8629,-1.95538 6.1881,-5.6568 10.0039,-7.72223 8.1748,-4.42493 24.7255,-8.73828 33.9961,-8.80322 6.0884,-0.0427 13.2479,3.62652 19,5.52466 15.0972,4.98187 30.6505,12.35492 46,16.00079 l -5,-31 c -14.0854,4.01575 -27.1078,-1.09454 -41,-5 l 23,-19.2901 9.7878,-4.11731 L 1363.0007,663 1357,640 c -5.925,0.99261 -10.6558,7.2406 -15,11.16974 -11.4962,10.3977 -26.0118,31.61175 -41,36.2724 -8.0188,2.49347 -19.5983,4.61487 -28,4.47449 -2.6167,-0.0437 -9.0189,-3.67157 -10.8828,-1.25843 -1.8569,2.40424 0.365,7.80555 1.0217,10.3418 2.1748,8.3988 2.091,18.17645 5.8611,26 m -794,-74 -52,49 c 10.29633,0 29.93423,0.56396 38.72223,-5.27856 3.63113,-2.41413 4.08533,-7.88373 5.30633,-11.72144 3.33359,-10.47772 9.00721,-20.94238 9.97144,-32 h -2 m 548,39 3,16 c -6.5361,-2.99402 -15.7167,-9.51971 -19,-16 h 16 m 18,0 c 3.5648,0 10.4495,-1.30634 13.3966,1.02777 3.3385,2.6441 2.721,15.74817 -1.5402,17.32483 C 1045.437,713.09784 1041.8278,696.8103 1041,692 m 54,1 c -7e-4,7.46021 -2.9819,26.44897 -15.4113,16.97223 -3.5148,-2.67993 -4.0701,-14.25794 -0.2708,-16.79321 4.1395,-2.76227 11.1519,-0.75153 15.6821,-0.17902 m 36,-1 c -1.1088,4.05414 -5.6241,20.04761 -11.6976,18.24847 -3.7038,-1.09716 -3.2373,-14.16705 -1.2747,-16.64508 C 1120.3705,690.64539 1127.6503,692 1131,692 m 33,0 c -2.0439,7.28253 -10.3087,15.42029 -18,16 3.7831,-11.60657 5.9543,-15.12311 18,-16 m -431,5 -1,44 c 19.99225,-6.38367 18.97412,-35.547 1,-44 m 64,96 c 30.92938,0 62.17499,1.20044 93,-0.91052 16.05353,-1.09937 28.21979,0.68579 43,-7.08948 v -2 c -16.60736,-12.31073 -31.40558,-27.02173 -48,-39.37036 -6.48279,-4.82416 -15.28577,-12.02686 -24,-10.23535 -15.19818,3.12445 -30.52997,24.13568 -41,34.60571 -7.45343,7.45343 -18.51563,15.38409 -23,25 m 221,-39 c -31.20392,13.46344 -58.09253,36.76837 -89,51.21838 -6.02692,2.81775 -14.23016,6.04255 -21,5.63428 -3.66901,-0.22125 -9.42444,-4.32153 -11.87885,0.38037 -3.95678,7.57996 9.75232,20.53589 14.87885,24.11804 11.10712,7.76111 23.52313,2.47901 35,7.21302 11.10864,4.58215 21.96185,20.27081 30.24615,28.86029 3.72577,3.86303 6.97327,10.02649 11.79322,12.54785 C 998.02722,889.19696 1019.7565,885 1031,885 h 99 34 c 4.2583,0 10.6757,1.18646 14.625,-0.60339 4.2297,-1.91693 8.1001,-8.12043 11.375,-11.39661 10.0291,-10.0329 19.384,-20.52448 30,-29.95605 6.6177,-5.8794 15.7842,-3.67841 24,-5.5586 11.9023,-2.72381 21.7162,-15.42114 22,-27.48535 -5.2856,0.24152 -10.788,3.39685 -16,2.17126 -13.1439,-3.09075 -25.5513,-13.79449 -37,-20.56787 C 1191.1572,778.68073 1168.0646,770.86041 1151,752 v -1 l 9,-15 c -10.801,-3.19269 -24.7522,-1 -36,-1 h -73 c -8.5316,0 -29.5192,-3.85486 -36.5656,1.02777 -5.7506,3.98474 1.3304,13.89588 3.5656,17.97223 m 80,8 c 3.6284,15.67633 12.897,30.99445 23.4282,42.98535 2.7016,3.07599 13.2187,8.98334 11.3157,13.86572 -2.9462,7.55909 -13.7743,-4.6762 -16.1644,-7.13659 -7.6143,-7.83832 -13.6463,-17.77436 -18.1435,-27.71448 -2.6562,-5.87115 -4.4674,-14.6571 -8.3703,-19.68213 -3.0012,-3.86401 -10.7704,-2.27063 -15.0657,-2.32172 -12.7167,-0.15124 -37.7992,3.711 -43,-9.99615 h 74 c 6.3722,0 22.271,-2.88287 27.3966,1.17902 4.6094,3.65283 -0.3014,9.05352 -4.4012,9.63195 C 1119.0804,764.20984 1108.062,762 1098,762 M 692,796 C 633.67676,800.60333 577.80286,821.83167 534.16974,861.67902 522.20551,872.60522 504.09039,887.0589 499,903 H 927 C 922.47687,886.39606 900.52533,869.59668 888,858.71838 844.57428,821.00293 792.27039,799.5202 735,795 c 5.43298,-5.07202 15.25055,-6.05756 19.25769,-12.05481 5.31903,-7.96057 -0.0366,-20.03442 -8.25848,-23.23144 -17.344,-6.74415 -46.15094,-6.44306 -63.99921,-1.52466 -9.14111,2.51898 -14.32355,13.86139 -11.48615,22.7677 C 672.8902,788.41589 686.67334,790.00311 692,796 m 155,69 -7,-13 c 12.81342,2.74512 27.50262,13.4447 35,24 -19.85071,5.8678 -44.01666,-3.11786 -60,-14.55865 -5.59454,-4.00452 -18.77454,-19.64643 -25.90588,-18.53473 -4.292,0.66906 -6.22406,7.79425 -7.85028,11.09338 -4.11219,8.34235 -9.02851,22.30426 -19.24384,24.60492 -14.92096,3.36041 -28.36346,-17.66773 -36.74536,-27.0285 C 722.33655,848.3175 716.84302,841.4231 712,841.48071 c -4.53979,0.054 -9.09473,6.61426 -12,9.51929 -8.19159,8.19104 -19.28052,24.67487 -31,27.46606 -14.65735,3.49097 -20.69727,-13.70214 -24.50464,-24.46606 -1.22961,-3.47632 -3.02716,-11.49048 -7.55017,-11.96295 -3.58728,-0.3747 -7.5108,4.11877 -9.94519,6.2492 -7.08801,6.20295 -13.97888,12.45026 -22,17.48462 C 587.28265,876.89099 569.1969,877 549,877 c 5.83453,-12.51111 22.30859,-21.06232 35,-25 l -7,14 c 17.19489,-10.04565 33.06012,-21.17163 49,-33.12653 3.85352,-2.89013 12.32208,-11.71014 17.67126,-10.13732 7.70258,2.26477 12.23682,23.60864 15.19062,30.26385 1.25824,2.83496 3.34222,8.78668 7.18133,8.79321 4.27997,0.007 10.12726,-7.13592 12.84107,-10.09338 7.27343,-7.92651 20.27044,-26.93414 31.11572,-29.22223 5.7818,-1.21979 10.43274,4.96112 14,8.5224 l 24,24 c 2.55469,2.55353 6.12231,7.60919 9.98456,8.07867 4.04425,0.49164 6.56531,-5.23523 8.15356,-8.07867 4.50287,-8.0614 7.93646,-16.75677 12.10956,-25 1.41248,-2.79004 3.09338,-7.23004 6.79553,-7.40356 5.98011,-0.28034 13.70929,8.94506 17.95679,12.48382 12.79224,10.65772 27.64001,25.19776 44,29.91974 m 121,-24 c 7.1864,1.71088 17.17584,-1.43933 23.72144,1.60339 C 997.27777,845.18628 998.57532,863.5769 998,869 L 975,850.03937 968,841 m 229,0 c -2.7909,8.73993 -15.3297,22.79999 -24,26 l 6,-26 h 18 m -180,1 c 4.5873,0 13.6208,-1.73395 17.4861,1.02777 3.6217,2.58777 4.4431,18.99536 0.9105,21.79321 C 1021.1854,876.07642 1017.6922,849.93781 1017,842 m 78,1 v 23 c -5.6434,0.7132 -25.0312,4.37256 -28.9723,-0.60339 C 1062.5258,860.97504 1065,847.51038 1065,842 l 30,1 m 54,-1 c -0.5244,6.58954 -1.771,17.31067 -5.9343,22.68213 -2.1391,2.7597 -9.6753,3.69769 -12.038,0.71448 C 1127.6379,861.11664 1130,848.32129 1130,843 l 19,-1 m -878,8.70294 c -19.98946,6.75354 -11.40887,37.95947 8.99924,31.30402 18.9053,-6.16535 10.57455,-37.91718 -8.99924,-31.30402 M 637,871 c -1.25983,1.78711 -2.46252,3.4433 -4.05865,4.96527 -16.51435,15.74725 -13.55372,-23.54401 -1.26777,-11.79938 2.04358,1.95356 3.60309,4.60041 5.32642,6.83411 m 161,-10 c 2.20532,0.85498 4.11359,1.71136 5.89581,3.34412 15.1117,13.84436 -19.69745,19.5003 -10.63269,3.65741 C 794.65051,865.57678 796.42889,863.30994 798,861 m -86.99615,2.03705 c 10.43035,-1.00788 11.51239,16.29089 0.99615,18.01544 -10.77179,1.76648 -10.85834,-17.06244 -0.99615,-18.01544 M 1322,882.50696 c -20.6146,2.95996 -16.3773,34.29706 4,31.78393 20.472,-2.52478 16.3219,-34.70184 -4,-31.78393 M 978,895 989.69678,919 990,973 c -5.27594,0 -15.04407,-1.88483 -19.60956,1.02777 C 963.51111,978.41644 956.39484,1000.1753 955,1008 h 273 c -3.151,-9.8678 -21.1097,-30.75006 -31,-34.39661 C 1190.5502,971.22534 1180.8346,973 1174,973 l 1.3032,-55 L 1189,895 H 978 M 463.00076,914.70294 C 449.55518,919.27277 449.76331,940.33362 464,943.60571 475.88876,946.33813 490.80496,944 503,944 h 82 260 90 c 8.66193,0 26.08411,3.31946 32.72223,-3.27856 C 975.48785,933.00269 971.2735,917.36877 960,916.10876 927.87164,912.51782 893.34924,916 861,916 c -93.71924,0 -187.27686,-1 -281,-1 -24.9234,0 -50.10266,1.05084 -75,-0.0394 -12.46536,-0.54584 -29.96225,-4.34875 -41.99924,-0.25769 M 1097,973 h -16 V 939 L 1079.3966,926.60339 1067,925 h -34 l 1,35 -1.6034,12.39661 L 1019,973 v -42 c 0,-3.92914 -1.5437,-12.14984 1.0278,-15.39661 3.1014,-3.91583 12.8216,-0.82452 16.9722,-0.64276 14.609,0.63971 29.3761,0.0394 44,0.0394 3.9113,0 13.2036,-1.67975 15.9723,1.74231 2.4487,3.02655 1.0336,10.5863 1.0277,14.25769 -0.023,13.95636 -1,27.97516 -1,42 m 45,1 -13.2577,-1.02777 L 1127,958 v -43 c 3.5231,-0.65405 11.2976,-2.77374 13.9723,0.60339 C 1143.5438,918.85028 1142,927.07086 1142,931 v 43 m -891,-8 4,16 68,-21 -4,-15 -68,20 m 1027,-16 -13,45 42,16.4244 23,7.5756 15,-47 -14,-3 -10,30 -13,-4 8,-22 -13,-5 c -1.2004,4.39825 -4.2638,18.9021 -9.2246,20.06787 -2.897,0.68073 -6.8749,-1.56879 -9.7754,-2.06787 l 9,-31 -15,-5 m -792,7 c 0,46.4999 26.06116,94.0389 61.00079,123.7253 17.62586,14.9757 36.82929,24.7251 56.97992,35.5486 7.89167,4.2388 3.18665,14.9036 13.02314,18.0741 C 633.81201,1139.7656 656.5014,1136 674,1136 h 111 c 12.11591,0 34.08307,1.7882 30,-17 65.55542,-27.2933 122.79303,-85.9885 123,-161 l -452,-1 m 67,47 h 1 c 4.64716,-13.62537 15.14832,-23.86859 30,-24.91052 18.25525,-1.2807 35.65472,14.85217 28.60107,33.91052 -4.34954,11.7522 -27.58569,23.0658 -28.28241,3.0046 -0.34552,-9.9481 21.07923,-1.8374 14.67206,-16.9645 -8.62488,-20.36298 -32.38263,-0.74048 -34.6651,12.9599 -5.43902,32.6471 35.5965,51.2493 62.67438,45.1118 38.14392,-8.6456 64.3689,-46.7833 85,-77.1118 9.97119,5.0636 18.12427,21.1401 24.88428,30 15.30108,20.0542 36.04858,42.5055 62.11572,47.3811 18.40802,3.4431 40.2749,-3.4281 52.81482,-17.3957 9.82672,-10.9456 13.8219,-27.7798 3.65588,-39.892 -7.53283,-8.97499 -34.50103,-13.00716 -30.13733,5.8873 1.8313,7.9293 20.73078,2.1185 14.34797,15.0039 -8.59943,17.3601 -28.63202,-2.4751 -28.65204,-14.9846 -0.0593,-37.03583 49.43261,-30.01062 58.9707,-2 5.11481,-10.17761 7.51282,-21.44647 18,-28.00616 7.52869,-4.70917 17.64136,-4.83484 22,4.00616 -25.43182,-3.61243 -30.42395,34.1769 -37.86188,51 -11.7019,26.4673 -38.31085,41.6934 -67.13812,40.9854 -25.41064,-0.6242 -48.7724,-17.7215 -64.84491,-35.9854 -6.28009,-7.1364 -11.93762,-14.746 -18.07483,-21.9962 -2.18884,-2.5858 -5.026,-6.5933 -8.79474,-6.7661 -4.27191,-0.1959 -7.45385,5.9443 -9.74542,8.7623 -7.24567,8.91 -14.36157,17.9117 -22.5401,25.9961 -24.17859,23.9004 -57.82489,37.4921 -91,24.9383 C 573.84143,1060.8199 560.17261,1047.8422 553.33643,1032 544.61377,1011.7861 541.22607,982.53455 515,979 c 13.53754,-22.13434 36.75275,10.80371 38,25 m -289,2 6,15 40,-17 -20.73456,30 -7.56097,11.0895 L 289,1062 l 65,-28 -7,-15 -43,19 22.29013,-31 8.78394,-14 L 331,980 307,987.93909 264,1006 m 413,-14 c -17.64667,-5.03308 -22.38757,1.41998 -21,19 -4.659,-3.769 -9.57001,-9.6381 -9.52545,-16 0.0696,-9.93201 11.12964,-18.27863 20.5216,-13.54321 4.36133,2.19897 7.53687,6.46655 10.00385,10.54321 m 91,20 c 5.17902,-14.25665 0.46198,-28.82562 -17,-20 6.53381,-22.6286 38.48376,-8.41095 25.75079,11 -2.36627,3.6073 -5.26141,6.5215 -8.75079,9 m 483,14 40,20 v 1 h -36 l -14.6598,1.0278 L 1234,1060 l 59,32 7,-13 -33,-18 v -1 l 45,-2 6,-16 -43,-21.2469 -15.8704,-6.9252 L 1251,1026 m -705,16 c -6.26953,-2.6726 -12.61426,-8.1362 -14,-15 6.33765,1.9313 11.14801,9.2745 14,15 m 346,-15 c -1.32361,6.5601 -6.40167,10.7639 -12,14 l 9,-14 h 3 m 107,6 c 5.4239,8.8975 29.6637,6 39,6 34.1138,0 70.1835,3.1782 104,-1.4252 8.4475,-1.15 26.7866,0.042 32,-7.5748 -56.4462,-4.9224 -118.9907,-7.862 -175,3 m -370,-1 c 1.17548,1.6733 2.78186,3.3328 3.68213,5.1743 6.39538,13.0831 -19.97534,8.1834 -8.47766,-2.8564 1.47607,-1.4173 2.91028,-1.784 4.79553,-2.3179 m 169,0 c 1.1958,1.2368 2.77399,2.562 3.70752,4.0447 7.41248,11.7727 -17.31982,11.3587 -7.51923,-0.9065 1.06781,-1.3364 2.45087,-2.1558 3.81171,-3.1382 m -83,36 c -3.43018,-1.6107 -5.55542,-3.967 -8.28552,-6.5618 -2.33148,-2.2157 -6.37616,-4.3889 -7.53858,-7.5277 -1.31073,-3.5392 2.65711,-6.7118 4.82874,-8.9098 1.99194,-2.0161 4.84326,-5.7939 7.99151,-5.7939 4.45997,0 15.09119,12.3016 13.59644,16.7037 -1.53174,4.5111 -7.77393,8.1652 -10.59259,12.0895 m -414,14 c 2.61676,14.4995 16.85297,31.7561 31,35.9561 17.37021,5.1567 40.27374,-7.5826 45.21143,-24.9561 4.78357,-16.8313 -7.55704,-29.9303 -14.21143,-44 -21.86969,5.0042 -41.81082,23.5742 -62,33 m 638,-19 c 4.78015,7.5859 21.11322,5.355 29,6.2855 27.64545,3.2619 66.5223,6.7038 93,-3.2855 -7.9054,-6.4722 -22.3956,-4.6189 -32,-5.0393 -28.5963,-1.2522 -62.09296,-5.3442 -90,2.0393 m -257,4 c 8.97809,23.9805 -28.53949,27.6622 -43,19 16.9856,-5.0322 28.04327,-8.7745 43,-19 m 63,1 c 11.80847,10.217 27.20361,17.3201 43,18 v 2 c -10.43091,0.086 -25.30292,4.7906 -35,-0.1752 -7.02496,-3.5975 -13.01746,-12.4804 -8,-19.8248 m -422,20 c 4.93658,-2.9114 9.91315,-5.7827 15,-8.4243 3.68362,-1.9129 7.26407,-4.0037 11,-5.8187 9.86475,-4.7929 15.16052,6.2271 12.34723,15.243 -6.25653,20.0504 -32.86121,17.6433 -38.34723,-1 m 900,-14 -9,13 57,39 h 1 l 9,-14 c -17.8729,-12.0573 -37.9208,-30.387 -58,-38 m -869,86 h 2 c 6.78394,-7.7047 16.07556,-13.422 24,-19.9166 4.86728,-3.9892 9.97748,-7.6685 15,-11.4577 3.71017,-2.799 12.12152,-7.3211 13.74384,-11.8101 1.44702,-4.004 -5.63944,-12.2438 -9.75849,-11.6435 -4.85928,0.7081 -10.33035,6.749 -13.98535,9.7445 -8.79315,7.2067 -18.05179,13.8598 -27,20.8736 -3.29861,2.5855 -10.40863,6.059 -11.66898,10.3001 -1.27099,4.2768 5.36042,10.6866 7.66898,13.9097 m 860,0 c 0,3.7675 -1.4312,11.2939 1.0277,14.3966 3.0973,3.9083 12.4456,0.2933 15.9723,-1.3009 11.5964,-5.2419 21.8478,-17.6681 20.1027,-31.0957 -2.5136,-19.3405 -21.0409,-20.0579 -35.1027,-12.6798 -4.0902,2.1461 -13.0054,9.9983 -17.2136,4.3612 -5.9788,-8.0088 11.3696,-12.0709 14.1859,-16.1798 2.1182,-3.0903 1.0277,-8.9236 1.0277,-12.5016 -20.8883,0.1752 -46.703,30.3925 -22.9961,46.2971 16.5234,11.0852 26.5352,-13.4166 40.8865,-9.9607 5.0965,1.2273 3.1742,7.1768 0.8959,10.1458 -4.4111,5.7483 -11.8337,8.3697 -18.7863,8.5178 m -802,59 c 7.95465,-16.7874 16.62595,-33.2019 24.55093,-50 2.17139,-4.6025 8.55072,-12.9519 5.79474,-18 -1.80398,-3.3043 -6.45688,-9.1504 -10.36032,-9.8789 -4.26782,-0.7964 -10.18228,2.9582 -13.98535,4.598 -11.07346,4.7749 -22.19473,9.6792 -33,15.0332 -3.9101,1.9374 -17.09891,5.6456 -18.11807,10.3017 -0.73767,3.3701 5.25595,9.0207 8.28784,9.4429 4.81757,0.6708 9.039,-4.6962 13.83023,-3.1405 4.66479,1.5148 16.36734,12.4856 16.26389,17.6436 -0.0865,4.3129 -5.15729,7.5695 -4.38581,12 0.83853,4.8156 7.3999,9.3782 11.12192,12 m 108,-58 c 2.5105,8.7291 14.28601,9.2644 22,10.2816 21.27283,2.8056 42.55817,5.9489 64,6.7291 75.80164,2.7588 151.2854,0.8592 227,-0.9961 19.64502,-0.4813 39.53577,-3.0852 59,-5.885 5.38324,-0.7743 16.88934,-1.7075 20.28784,-6.5053 4.93189,-6.9627 -18.0105,-7.7692 -21.28784,-8.2 -17.83618,-2.3441 -36.35858,1.0534 -54,-1.6372 -8.88165,-1.3547 -15.12311,-9.8135 -24,-10.6821 -23.37543,-2.2877 -48.33087,1.8922 -72,0.8557 -30.35223,-1.3292 -60.65533,-0.7189 -91,0.025 -12.62335,0.3093 -26.62616,-2.7186 -39,-0.7717 -8.30365,1.3066 -14.47607,8.9629 -23,10.4576 -21.60822,3.7889 -47.69135,-3.8796 -68,6.3287 m 643,-10 -9.7932,11.0039 L 1164,1175 l 33,34 c 4.2522,-1.6484 11.8806,-6.4727 11.0934,-12 -0.6963,-4.8889 -7.9871,-10.1694 -11.3781,-13.4993 C 1185.8083,1172.791 1175.493,1159.8003 1163,1151 m -740,9 -9,20 -11,-11 20,-9 m 715,13 c -2.834,2.8105 -10.4459,7.5258 -9.9545,12.0146 0.4119,3.762 4.552,7.3294 6.9043,9.9854 8.5441,9.6471 29.1636,27.4891 14.0316,39.6057 -8.9737,7.1856 -16.0567,-0.5637 -21.6435,-7.6096 -5.314,-6.7017 -10.5995,-13.4758 -16.2429,-19.9058 -1.7796,-2.0276 -4.1015,-5.5162 -7.1884,-5.2732 -4.312,0.3395 -8.8248,5.4991 -11.9066,8.1829 v 1 c 11.2419,12.2051 23.4028,36.1997 40,41.1998 20.2711,6.1071 41.3462,-11.3336 38.8156,-32.1998 -1.777,-14.6519 -21.4043,-38.2668 -32.8156,-47 m -671,5 -28.08411,34 L 425,1232 435.99615,1238.8325 443.8804,1232 461,1209 h 1 c 0.64737,15.0751 -4.97321,32.3785 -2.84802,46.9961 0.65664,4.5166 6.30398,9.7678 10.80865,10.5973 5.91501,1.089 12.663,-12.6232 15.6937,-16.5934 6.36838,-8.3424 12.68332,-16.7251 19.13888,-25.0007 2.14969,-2.7559 6.86454,-7.1327 6.30014,-10.9847 -0.60577,-4.1342 -6.4859,-7.0766 -9.09335,-10.0146 -10.51639,5.0109 -17.41428,21.2339 -25,30 l 1.00385,-33 0.38891,-12.9097 L 467,1178 m 621,63 1,-16 c -14.411,-2.6753 -29.6506,0.9236 -38.0302,14 -13.0933,20.4325 1.3003,51.7777 25.0302,55.5602 13.0363,2.078 27.9452,-5.1207 34.3195,-16.5602 1.8962,-3.4031 6.1201,-12.7318 2.0771,-15.973 -2.3627,-1.8941 -11.1221,-2.9837 -13.2214,-0.4229 -6.753,8.2372 -8.2853,21.0849 -23.1752,15.2477 -14.8191,-5.8094 -17.6626,-26.3466 -3.9993,-34.8572 5.6536,-3.5215 9.9771,-2.0136 15.9993,-0.9946 m -550,64 15,6 c 2.85968,-10.0032 8.71613,-25.554 16,-33 0.58661,7.4324 1.95544,14.6416 2.99921,22 0.86902,6.1263 3.90185,35.887 17.30175,26.9321 2.88746,-1.9297 4.38471,-7.8667 5.69825,-10.9321 l 11.00158,-26 c 2.33606,-5.4526 10.77808,-17.8086 9.18286,-23.7253 -1.13189,-4.198 -9.58313,-5.735 -13.18365,-6.2747 l -14,35 c -4.28125,-8.884 -5.26123,-21.2539 -6.85492,-31 -0.78119,-4.7775 -0.65155,-11.506 -3.98846,-15.3627 -2.15528,-2.4909 -9.27893,-6.7784 -12.31403,-3.9907 -3.74335,3.4382 -5.47192,11.7658 -7.62268,16.3534 -6.573,14.0204 -15.14063,29.085 -19.21991,44 m -7,-27 c 1.77679,-2.938 5.97455,-7.2753 5.69751,-10.895 -0.21777,-2.8454 -3.58789,-4.2722 -5.70136,-5.5286 -5.07959,-3.0196 -15.90686,-13.0082 -21.86651,-12.463 -3.64102,0.3331 -7.74091,8.2267 -6.04709,11.4082 2.39615,4.5006 10.7001,7.3955 14.91745,9.9275 4.30988,2.5875 8.35168,5.6218 13,7.5509 m 426,0 c 3.54358,15.3168 10.4754,30.1633 15.65662,45 1.72406,4.937 3.34118,14.75 7.18676,18.3564 2.41755,2.2674 6.55036,0.1991 9.15662,-0.7005 6.46069,-2.2301 26.4431,-6.2063 29.8788,-12.1552 1.8147,-3.1419 -1.3802,-9.1246 -1.8788,-12.5007 l -28,8 -4,-13 21,-7 -3,-13 -23,6 -4,-11 25,-9 -4,-14 -40,15 m -326,-7 -12.51849,40 -7.48151,27 42,11 3,-14 c -5.2691,-0.6426 -22.23798,-3.3103 -24.78705,-8.4189 C 629.72754,1323.604 632.67676,1318.225 633,1315 l 22,5 4,-13 -21,-6 3,-11 24.48999,3.9329 L 670,1282 631,1271 m 285,65 -8,14 c 18.91943,11.8989 58.13843,4.6329 49.19983,-25 -5.35089,-17.7391 -23.55249,-8.1602 -34.00769,-17.5123 -9.95709,-8.9066 14.27173,-7.4232 17.80786,-6.4877 l 6,-13 c -18.25061,-8.1101 -53.78839,2.2274 -39.58258,27.9961 7.68597,13.9421 24.27002,5.3342 33.2207,14.5171 3.92426,4.0259 -1.78674,8.9953 -5.63891,10.0532 -7.14862,1.9629 -12.7732,-1.9997 -18.99921,-4.5664 m -233,-50 -14,68 15,3 4,-22 c 7.66949,0.1583 15.47015,2.3425 23,-0.2493 15.83722,-5.4511 21.7959,-26.9057 8.90662,-38.4212 C 711.55548,1288.8684 693.86273,1286.4963 683,1286 m 168,11 6,69 43,-5 -2,-15 -26,4 c -0.25391,-3.1904 -2.40643,-8.6455 -0.8017,-11.5664 2.47748,-4.5093 16.2154,-4.2366 20.8017,-4.4336 l -1,-15 -22,3 -2,-12 25,-4 -2,-14 -39,5 m -98,-1 c -11.52673,19.749 -24.67511,45.0436 -31,67 12.39136,2.9844 17.48859,1.8386 21,-11 6.5321,1.2128 18.18823,-0.4536 23.72144,3.0278 3.3551,2.1109 2.92071,6.6237 4.84722,9.669 3.02424,4.7804 11.88483,3.6471 16.43134,2.3032 l -21,-70 -14,-1 m 47,4 v 68 h 42 c 0,-3.5648 1.3064,-10.4495 -1.02777,-13.3966 C 837.64227,1350.3989 821.09406,1353.9089 816,1354 l -1,-54 h -15 m -108,20 c 0.12744,-2.7885 0.5824,-5.2933 1.26929,-8 0.59259,-2.335 0.82995,-5.5792 2.58795,-7.3928 8.28888,-8.5508 26.31451,16.217 5.14276,16.3628 -3.02985,0.021 -6.00702,-0.5917 -9,-0.97 m 67,-1 5,21 -14,-1 7,-20 z"
       id="path1"
       clip-path="url(#clipPath7)" />
  </g>
</svg>
