<svg width="1024" height="1024" viewBox="0 0 1024 1024" fill="none" xmlns="http://www.w3.org/2000/svg">
<rect width="1024" height="1024" fill="black"/>
<g clip-path="url(#clip0_1_1708)">
<mask id="mask0_1_1708" style="mask-type:luminance" maskUnits="userSpaceOnUse" x="66" y="67" width="891" height="890">
<path d="M511.5 957C757.543 957 957 757.767 957 512C957 266.233 757.543 67 511.5 67C265.457 67 66 266.233 66 512C66 757.767 265.457 957 511.5 957Z" fill="white"/>
</mask>
<g mask="url(#mask0_1_1708)">
<mask id="mask1_1_1708" style="mask-type:luminance" maskUnits="userSpaceOnUse" x="-75" y="-53" width="1150" height="1117">
<path d="M499.711 1063.6C817.07 1063.6 1074.34 813.837 1074.34 505.734C1074.34 197.631 817.07 -52.1357 499.711 -52.1357C182.351 -52.1357 -74.9194 197.631 -74.9194 505.734C-74.9194 813.837 182.351 1063.6 499.711 1063.6Z" fill="white"/>
</mask>
<g mask="url(#mask1_1_1708)">
<path d="M475.042 -100.909C438.865 -96.1567 402.775 -95.3915 366.865 -87.1609C246.646 -59.6061 137.424 0.317672 53.0464 90.9793C-1.66164 149.762 -44.098 219.298 -73.372 293.907C-173.68 549.556 -70.6764 855.347 154.376 1008.8C280.35 1094.69 437.194 1130.5 588.048 1110.17C649.36 1101.91 709.735 1084.42 765.766 1057.98C993.376 950.564 1132.41 705.882 1115.32 456.249C1097.99 203.126 905.119 -15.6689 663.385 -81.1721C615.653 -94.1062 566.02 -101.319 516.574 -101.319C502.97 -101.319 488.534 -102.681 475.042 -100.909ZM469.247 -79.7837C483.708 -81.4909 499.115 -80.0596 513.676 -80.0596C570.803 -80.0596 627.158 -71.2249 681.736 -54.1539C751.918 -32.2023 816.24 2.64607 873.943 48.1339C921.777 85.8421 963.536 132.091 997.251 182.78C1037.18 242.807 1066.13 308.657 1082.34 378.943C1137.73 619.14 1022.06 877.781 815.025 1007.46C744.717 1051.5 663.657 1080.09 581.287 1089.88C446.349 1105.91 309.906 1079.41 193.01 1008.79C-4.62802 889.389 -125.082 642.553 -83.7453 412.765C-70.4187 338.684 -44.716 268.582 -5.76086 204.039C34.2016 137.827 86.7462 79.8533 148.58 33.4594C209.088 -11.9392 280.679 -45.5922 354.309 -62.9999C392.519 -72.0336 430.492 -75.2089 469.247 -79.7837ZM524.301 -43.3394C525.526 -38.8269 529.15 -35.4739 529.89 -30.7772C532.672 -13.1155 526.498 10.578 523.731 28.1684C522.679 34.8541 522.691 41.9844 520.655 48.4605C519.841 51.048 515.919 55.2631 516.483 57.9074C517.394 62.1804 541.826 64.9051 542.767 60.7162C543.671 56.6888 538.748 50.3775 538.807 45.5622C538.987 30.6912 541.83 12.5978 545.55 -1.78755H546.516C548.169 14.3834 559.628 32.2663 565.423 47.4949C567.487 52.9193 569.485 62.3648 573.964 66.2524C578.133 69.8715 586.705 69.7059 591.911 69.7203L601.146 10.7746L610.263 -34.6425L585.15 -39.4741L587.845 -24.9793L582.253 19.4715H580.321C578.808 4.68358 568.281 -12.0925 562.742 -25.9456C561.041 -30.2012 559.408 -38.621 555.547 -41.38C549.85 -45.4514 531.395 -43.3394 524.301 -43.3394ZM433.51 -40.4404C434.062 -36.2854 437.045 -32.9583 437.34 -28.8446C437.875 -21.4047 434.583 -12.896 433.124 -5.65283C429.678 11.4495 425.964 28.4683 422.499 45.5622C421.323 51.3653 416.188 58.3318 415.958 63.7791C415.741 68.9209 438.663 66.4126 441.601 63.8963C444.458 61.4491 440.307 56.9228 439.758 54.2591C439.043 50.7899 440.734 47.0498 441.237 43.6296L471.178 42.6633L470.213 61.0234L507.881 60.0571C506.813 53.124 500.54 46.3744 497.667 39.7643C489.693 21.4259 481.247 3.18986 473.693 -15.3161C471.054 -21.7822 467.842 -37.3945 462.003 -41.3793C456.389 -45.2109 440.297 -40.4592 433.51 -40.4404ZM632.477 -30.7772L633.093 -17.2487L620.738 32.0337L612.785 60.0571L605.433 73.5856C626.704 76.7144 647.454 88.3444 669.18 81.8574C703.333 71.6602 718.821 18.2568 693.159 -7.41774C677.803 -22.781 652.178 -24.366 632.477 -30.7772ZM288.63 110.306C293.205 108.77 312.063 102.746 312.853 97.628C313.321 94.5936 308.453 92.3209 307.155 89.9228C304.989 85.9214 306.016 79.925 306.016 75.5182C314.17 74.3132 324.831 66.3319 332.77 67.1971C340.965 68.0902 341.572 80.6089 339.821 86.1477C348.049 88.4058 359.067 81.9404 366.865 79.1769C369.031 78.4094 374.391 77.5138 374.392 74.4513C374.393 71.4729 370.202 69.4374 368.279 67.7496C362.767 62.9127 358.59 56.1634 354.109 50.3938C343.543 36.7885 333.516 22.7782 323.391 8.84199C319.582 3.59918 314.898 -6.07136 309.379 -9.48757C305.063 -12.1596 285.32 -5.46033 282.595 -1.30509C280.475 1.92829 287.367 8.62672 287.622 12.7073C288.708 30.0671 287.356 47.5281 288.544 64.8887C289.504 78.9194 284.827 97.061 288.63 110.306ZM638.273 65.855C639.119 56.1445 643.086 46.2898 645.538 36.8653C648.217 26.5688 651.196 16.3263 653.527 5.94303C654.278 2.59523 654.914 -4.5577 658.085 -6.55062C665.576 -11.2581 676.96 4.22779 678.636 9.80832C686.53 36.0991 668.24 72.037 638.273 65.855ZM451.861 -3.72019L464.417 29.1348H444.134C445.37 19.9552 446.655 3.86117 451.861 -3.72019ZM306.016 27.2021C311.982 35.4119 322.031 46.3314 324.367 56.1918L306.016 61.9897C303.591 53.7811 302.692 35.1273 306.016 27.2021ZM269.313 84.2151L262.469 105.47L247.098 118.036L206.604 51.3602L204.6 38.798C197.13 42.2918 190.114 47.2234 183.351 51.9268C181.248 53.3895 176.925 55.3968 176.514 58.2609C175.959 62.1371 185.215 66.8255 187.447 69.7344C196.706 81.8047 203.621 95.7039 212.006 108.373C217.423 116.558 223.254 124.898 227.978 133.498C229.419 136.121 229.874 142.359 233.705 142.473C240.081 142.663 249.603 133.624 254.825 130.304C261.387 126.132 275.919 121.381 279.872 114.626C283.089 109.129 273.468 88.1573 269.313 84.2151ZM803.435 126.733C796.215 128.021 789.864 133.401 782.186 132.322C746.166 127.257 769.809 79.8309 786.05 67.3328C797.817 58.277 812.251 63.0049 818.038 76.4845C820.053 81.1781 819.855 85.9793 819.855 90.9793C828.631 88.5151 836.705 77.3699 841.104 69.7203C833.573 67.4251 831.117 61.5089 825.612 56.3595C818.868 50.0508 809.744 45.2475 800.537 43.9196C758.254 37.8214 719.262 95.1223 747.926 130.561C754.979 139.282 779.422 155.45 791.639 150.305C797.672 147.763 802.407 132.708 803.435 126.733ZM862.353 87.1141C855.936 116.421 815.62 129.321 808.775 159.588C802.167 188.804 835.327 213.975 861.387 199.53C875.261 191.84 887.697 178.434 898.586 167.005C906.6 158.594 912.858 149.934 925.134 149.925C921.924 140.462 911.796 131.769 904.851 124.801H903.885C902.332 127.944 902.716 131.354 901.138 134.464C897.47 141.693 890.081 146.909 884.731 152.824C878.829 159.35 872.493 165.478 866.664 172.064C861.572 177.816 855.699 185.026 847.865 186.977C838.932 189.202 830.979 177.078 831.627 169.251C832.318 160.911 838.577 154.857 843.841 148.959C855.509 135.885 870.69 113.207 889.397 113.205C886.852 104.135 871.464 89.5972 862.353 87.1141ZM106.082 117.07C119.633 122.839 121.933 133.781 127.135 147.026C135.892 169.321 146.139 191.301 151.478 214.669C157.507 211.026 166.797 202.743 169.784 196.313C172.784 189.854 158.624 186.432 159.691 177.948C160.268 173.359 165.623 169.564 168.863 166.763C179.958 157.174 189.476 155.359 193.976 172.15C204.868 167.929 219.163 155.429 221.986 144.127C211.261 145.848 204.967 140.225 195.908 135.023C180.633 126.252 165.611 117.008 150.512 107.939C145.399 104.868 135.333 95.6383 129.263 95.969C122.324 96.3471 109.433 111.425 106.082 117.07ZM141.819 132.531L166.932 148.959V149.925L152.444 162.487C148.852 155.74 140.517 139.97 141.819 132.531ZM86.7652 399.236C109.184 392.733 125.827 375.617 141.819 359.617C158.555 342.874 175.504 326.317 192.03 309.368C200.586 300.593 209.466 292.146 217.649 283.001C219.864 280.527 224.089 273.783 227.659 273.366C230.188 273.071 232.188 276.778 233.454 278.447C237.598 283.908 241.833 289.319 245.849 294.873C262.263 317.576 278.799 340.368 295.948 362.516C300.893 368.902 305.647 375.433 310.562 381.839C311.974 383.679 314.839 386.995 312.81 389.374C309.271 393.521 298.303 381.972 295.391 379.787C284.124 371.332 272.596 363.194 261.586 354.399C256.68 350.48 250.491 343.359 244.201 341.944C238.087 340.569 231.497 349.871 227.946 353.819C214.799 368.434 202.464 388.808 194.942 406.967C207.861 403.607 220.913 388.65 231.645 380.764C235.427 377.985 241.199 372.644 246.132 372.515C253.687 372.319 264.724 381.88 271.245 385.409C286.545 393.69 301.786 401.64 317.606 408.899C325.102 412.339 332.588 417.15 340.787 418.562L318.572 360.583C336.198 370.876 353.152 379.823 373.626 378.943L358.333 360.583L323.126 322.811L305.707 303.57L311.651 293.907L332.09 271.682L394.789 204.039L419.988 176.016C421.402 186.515 426.93 197.187 426.387 207.904C425.904 217.425 418.465 230.651 420.869 239.793C422.434 245.746 429.346 251.086 433.51 255.254C445.296 267.05 459.665 285.117 475.042 291.974L459.588 253.321C486.542 282.52 510.524 313.095 535.311 344.156C542.802 353.542 554.255 375.219 565.833 378.943C561.849 361.714 554.573 344.388 546.516 328.695C574.487 345.968 602.115 368.034 632.477 380.876C630.709 359.248 620.389 334.892 613.794 314.2C610.766 304.701 605.487 292.338 606.399 282.311H607.365C617.808 303.313 635.317 322.575 649.405 341.257C653.118 346.182 659.866 359.107 666.369 360.175C672.854 361.239 684.016 353.134 689.463 349.954L674.009 321.93L702.985 339.258L714.576 334.149L740.654 316.132C737.787 309.982 732.068 305.942 727.132 301.473C717.972 293.182 707.227 276.03 694.293 273.831C686.982 272.589 674.873 281.377 669.736 278.423C660.003 272.827 651.375 260.616 643.904 252.355C633.867 241.258 622.476 231.416 612.281 220.466C606.644 214.412 597.611 200.059 589.014 198.639C582.957 197.639 575.73 204.409 571.628 208.072C557.995 220.246 541.586 234.509 531.062 249.456L543.618 257.428L554.243 249.456L581.287 221.433H582.253L588.821 250.422L581.315 280.378L589.979 326.762C574.406 313.285 561.116 296.561 547.086 281.509C522.124 254.73 497.821 227.329 473.274 200.174C463.196 189.025 453.579 177.457 443.638 166.188C439.458 161.451 434.245 154.463 427.715 153.157C415.313 150.678 405.336 165.097 398.22 172.953C385.415 187.088 373.05 201.761 361.07 216.601C354.056 225.29 347.189 236.253 337.889 242.602C325.075 251.349 312.841 259.516 301.187 269.909C296.493 274.095 289.456 282.902 282.835 283.623C277.111 284.245 272.103 278.124 268.347 274.744C259.482 266.765 243.166 247.414 229.713 250.009C216.083 252.637 204.053 271.874 194.904 281.349C168.632 308.555 141.52 334.845 114.775 361.549C105.937 370.374 82.7066 384.312 86.7652 399.236ZM857.523 226.264L872.852 246.553L879.536 251.909L886.59 243.335L911.612 224.332C912.581 241.014 895.694 251.874 895.249 268.783C895.083 275.079 898.549 281.941 901.834 287.143C904.818 291.869 907.842 296.597 913.543 297.772C910.752 278.763 924.435 264.082 928.031 245.591C950.108 257.163 976.434 245.091 975.32 217.568C974.714 202.616 964.424 191.443 955.027 180.847C951.954 177.382 943.415 162.687 938.757 162.687C935.198 162.687 935.863 169 934.765 171.184C932.27 176.149 926.473 179.921 922.236 183.312C902.407 199.184 881.982 220.012 857.523 226.264ZM83.8676 252.355V254.288C92.9139 259.874 102.832 270.946 113.809 271.682C113.927 261.7 123.109 260.146 128.949 253.307C137.907 242.815 141.924 226.117 137.743 212.736C136.553 208.929 134.51 205.171 131.843 202.197C119.961 188.946 101.898 193.017 87.731 199.506C81.7023 202.267 74.3526 207.064 67.4479 206.665C56.8501 206.053 56.8155 195.75 62.72 189.587C70.4223 181.547 81.1842 182.903 90.6286 178.915C86.5033 173.844 72.3556 163.558 65.6027 163.964C61.2506 164.225 55.9095 170.337 52.96 173.155C41.6873 183.926 32.7077 198.726 38.5622 214.669C39.8682 218.225 41.8813 221.504 44.4461 224.293C57.9622 238.988 76.6831 231.051 92.5603 225.247C98.1255 223.212 104.816 219.523 110.912 220.851C122.416 223.358 121.489 234.922 114.733 241.684C105.821 250.604 95.1726 249.631 83.8676 252.355ZM947.348 195.342C952.44 204.07 959.361 219.135 947.31 225.749C940.18 229.662 921.466 227.595 923.2 215.673C924.177 208.952 941.914 199.059 947.348 195.342ZM772.527 278.446C762.955 281.713 756.731 295.003 765.91 303.165C770.685 307.412 779.171 307.629 785.08 306.286C792.764 304.54 798.44 292.424 794.569 285.3C792.693 281.847 787.504 280.4 786.558 276.474C785.572 272.385 790.159 268.361 789.728 263.955C789.252 259.084 783.929 257.618 782.831 253.231C781.289 247.069 789.571 237.393 780.154 233.307C775.616 231.338 772.024 236.877 771.732 240.759C771.44 244.657 774.666 248.492 773.698 252.269C772.909 255.344 769.569 257.297 768.139 260.1C764.648 266.943 768.386 273.05 772.527 278.446ZM380.387 255.254L358.509 289.075L343.75 307.435L346.582 317.099C363.906 309.016 372.501 290.744 377.354 273.614C378.894 268.18 382.099 260.824 380.387 255.254ZM1000.47 255.254C990.749 275.685 955.699 283.193 935.758 291.564C926.375 295.504 918.994 299.543 908.714 298.739C910.567 309.136 918.399 321.802 924.168 330.627H926.099C933.368 319.219 952.19 311.036 964.734 306.469C963.675 315.979 953.596 320.585 947.386 326.8C935.028 339.169 929.375 363.449 945.417 376.044L956.181 354.786L974.393 331.593C980.021 336.445 985.078 341.63 992.744 342.874C1010.19 345.705 1024.78 329.259 1026.38 313.233C1027.86 298.468 1019.15 285.772 1012.07 273.614C1008.56 267.59 1006.96 258.629 1000.47 255.254ZM-14.6504 292.941C-3.25259 292.973 2.61475 299.869 10.4479 307.349C22.5037 318.861 34.6862 330.206 46.2362 342.227C49.5253 345.65 64.6043 358.092 59.449 362.971C54.4922 367.663 39.5943 361.395 33.6427 360.197C15.9259 356.629 -1.86991 353.214 -19.4797 349.166C-23.1554 348.32 -31.3611 340.817 -34.3648 342.393C-38.9661 344.808 -41.9846 364.263 -42.6604 369.28C-25.1269 373.208 -9.18099 391.087 5.63274 401.169C-12.6021 405.663 -33.6092 412.133 -52.319 411.798L-57.1483 442.72L-43.6262 438.161L-11.7528 444.991L30.7452 454.946L43.3014 463.98L48.1307 434.024C27.0634 439.777 7.51468 431.372 -13.6845 427.259V426.293L25.9158 419.973L50.0624 414.697C36.3798 396.958 10.5226 390.134 -4.99175 374.112L43.3014 385.074L56.8234 394.404L65.5304 366.381L76.1407 338.358C69.2437 337.999 53.3042 329.363 54.5728 320.964C55.7521 313.155 62.8311 306.118 65.5162 298.739L80.9663 302.079L90.6286 308.402L108.014 279.412C79.675 279.647 52.1249 271.066 23.9841 267.767C17.255 266.978 3.58276 260.924 -2.65609 263.606C-8.79636 266.245 -14.0325 286.773 -14.6504 292.941ZM1003.37 288.109C1010.16 300.059 1003.59 327.399 985.031 317.892C978.926 314.765 977.541 307.493 975.358 301.638L1003.37 288.109ZM18.1889 291.008L50.0624 296.806C48.9694 300.602 46.0897 309.862 41.2795 310.221C34.4128 310.734 22.799 295.858 17.2231 291.974L18.1889 291.008ZM760.646 314.227C757.136 316.802 754.956 321.707 751.278 324.626C730.415 341.181 706.983 357.829 682.702 368.982C676.026 372.048 668.031 376.203 660.487 375.842C657.655 375.707 653.183 374.144 652.304 378.12C651.348 382.451 655.406 386.535 658.15 389.282C668.564 399.709 683.101 392.193 693.326 402.15C700.7 409.331 708.103 424.446 717.637 428.475C726.282 432.128 739.303 428.27 748.381 428.226C769.629 428.124 790.88 428.226 812.128 428.226C820.366 428.226 832.413 430.437 840.138 427.4C853.458 422.164 858.323 405.315 869.954 398.184C879.447 392.364 891.304 396.583 900.972 388.292C903.516 386.111 911.475 377.723 907.15 374.138C903.98 371.511 897.034 374.254 893.26 374.021C885.975 373.57 878.341 369.774 872.011 366.354C850.747 354.866 829.165 343.783 809.244 329.978C805.778 327.577 802.478 324.611 800.274 320.963C798.944 318.762 798.887 315.048 796.368 313.816C789.555 310.486 778.115 314.811 770.596 313.924C767.631 313.574 763.312 312.27 760.646 314.227ZM423.851 319.031C426.677 327.458 433.332 336.8 432.191 346.088C429.458 368.345 398.581 375.972 391.589 397.303C386.344 413.305 395.453 427.536 404.548 439.822C407.721 444.107 415.465 453.312 421.589 448.665C425.232 445.901 423.263 439.661 422.647 435.956C421.059 426.408 418.193 415.557 420.995 406C428.094 381.788 464.552 369.642 447.955 340.29C445.612 336.146 442.511 332.218 439.141 328.859C434.868 324.601 429.613 320.856 423.851 319.031ZM956.041 429.192C959.772 427.302 962.018 423.726 965.704 421.73C973.599 417.454 989.585 413.286 998.539 413.223C1004.42 413.182 1011.33 416.727 1016.89 418.562C1031.47 423.376 1046.49 430.501 1061.32 434.024L1056.49 404.068C1042.89 407.948 1030.31 403.01 1016.89 399.236L1039.11 380.596L1048.56 376.617L1046.83 367.347L1041.04 345.122C1035.31 346.081 1030.75 352.119 1026.55 355.916C1015.45 365.963 1001.43 386.463 986.949 390.966C979.204 393.376 968.02 395.426 959.905 395.29C957.377 395.248 951.194 391.742 949.393 394.074C947.6 396.397 949.746 401.617 950.38 404.068C952.481 412.184 952.4 421.632 956.041 429.192ZM189.147 357.684L138.922 405.034C148.867 405.034 167.834 405.579 176.322 399.933C179.829 397.6 180.268 392.315 181.447 388.606C184.667 378.482 190.147 368.369 191.078 357.684H189.147ZM718.439 395.371L721.337 410.832C715.024 407.939 706.157 401.633 702.985 395.371H718.439ZM735.825 395.371C739.268 395.371 745.917 394.108 748.764 396.364C751.988 398.919 751.392 411.582 747.276 413.105C740.11 415.758 736.624 400.019 735.825 395.371ZM787.981 396.337C787.981 403.546 785.101 421.895 773.096 412.738C769.701 410.148 769.165 398.96 772.834 396.51C776.833 393.841 783.606 395.784 787.981 396.337ZM822.752 395.371C821.681 399.288 817.32 414.743 811.454 413.005C807.877 411.944 808.327 399.315 810.223 396.92C812.486 394.062 819.517 395.371 822.752 395.371ZM854.626 395.371C852.652 402.408 844.669 410.272 837.24 410.832C840.894 399.616 842.991 396.218 854.626 395.371ZM438.339 400.202L437.373 442.72C456.683 436.552 455.7 408.371 438.339 400.202ZM500.154 492.969C530.028 492.969 560.207 494.129 589.979 492.089C605.485 491.027 617.236 492.752 631.512 485.239V483.306C615.471 471.41 601.178 457.194 585.15 445.262C578.889 440.6 570.386 433.64 561.969 435.371C547.29 438.39 532.482 458.694 522.369 468.811C515.17 476.014 504.486 483.677 500.154 492.969ZM713.61 455.283C683.471 468.293 657.5 490.813 627.648 504.776C621.827 507.499 613.904 510.615 607.365 510.221C603.821 510.007 598.262 506.045 595.892 510.588C592.07 517.913 605.311 530.432 610.263 533.894C620.991 541.394 632.983 536.29 644.068 540.864C654.797 545.292 665.28 560.452 673.281 568.752C676.88 572.485 680.017 578.441 684.672 580.878C694.319 585.926 715.306 581.871 726.166 581.871H821.786H854.626C858.739 581.871 864.937 583.017 868.751 581.288C872.837 579.435 876.575 573.441 879.738 570.275C889.425 560.58 898.46 550.442 908.714 541.328C915.106 535.646 923.959 537.773 931.895 535.956C943.391 533.324 952.87 521.055 953.144 509.397C948.038 509.63 942.724 512.679 937.69 511.495C924.995 508.508 913.011 498.165 901.953 491.62C880.856 479.132 858.552 471.575 842.07 453.35V452.384L850.762 437.889C840.33 434.804 826.855 436.923 815.991 436.923H745.483C737.243 436.923 716.972 433.198 710.166 437.916C704.612 441.766 711.451 451.344 713.61 455.283ZM790.879 463.013C794.383 478.162 803.336 492.964 813.507 504.551C816.117 507.523 826.275 513.232 824.437 517.95C821.591 525.254 811.133 513.431 808.824 511.053C801.47 503.479 795.644 493.878 791.3 484.272C788.734 478.599 786.985 470.109 783.215 465.253C780.317 461.519 772.813 463.059 768.664 463.01C756.381 462.863 732.155 466.596 727.132 453.35H798.606C804.76 453.35 820.116 450.564 825.067 454.489C829.519 458.019 824.776 463.238 820.816 463.797C811.24 465.149 800.597 463.013 790.879 463.013ZM398.739 495.868C342.406 500.316 288.44 520.83 246.296 559.335C234.741 569.893 217.244 583.86 212.327 599.265H625.716C621.348 583.22 600.145 566.986 588.048 556.474C546.104 520.029 495.586 499.27 440.271 494.902C445.518 490.001 455.001 489.048 458.871 483.253C464.009 475.561 458.836 463.893 450.895 460.804C434.143 454.287 406.319 454.578 389.08 459.331C380.251 461.765 375.246 472.725 377.986 481.332C380.281 488.539 393.594 490.073 398.739 495.868ZM548.447 562.544L541.686 549.982C554.062 552.635 568.25 562.974 575.492 573.174C556.318 578.844 532.977 570.161 517.54 559.106C512.136 555.236 499.406 540.121 492.518 541.195C488.373 541.842 486.507 548.727 484.936 551.915C480.964 559.976 476.216 573.468 466.349 575.691C451.937 578.938 438.954 558.618 430.858 549.573C428.04 546.424 422.734 539.762 418.056 539.817C413.671 539.869 409.272 546.209 406.466 549.016C398.554 556.931 387.843 572.86 376.524 575.557C362.367 578.93 356.533 562.316 352.856 551.915C351.668 548.556 349.932 540.811 345.563 540.355C342.099 539.993 338.309 544.335 335.958 546.394C329.112 552.388 322.456 558.425 314.709 563.289C297.596 574.035 280.128 574.14 260.62 574.14C266.256 562.051 282.167 553.787 294.426 549.982L287.665 563.511C304.272 553.803 319.596 543.052 334.992 531.5C338.714 528.707 346.893 520.184 352.06 521.704C359.499 523.892 363.879 544.517 366.732 550.949C367.947 553.688 369.96 559.439 373.668 559.446C377.802 559.452 383.45 552.55 386.071 549.692C393.096 542.033 405.649 523.665 416.124 521.454C421.709 520.275 426.201 526.248 429.646 529.689L452.827 552.881C455.294 555.349 458.74 560.234 462.471 560.688C466.377 561.163 468.812 555.629 470.346 552.881C474.695 545.091 478.011 536.689 482.042 528.723C483.406 526.027 485.03 521.737 488.606 521.569C494.382 521.298 501.847 530.213 505.949 533.632C518.305 543.931 532.646 557.981 548.447 562.544ZM665.317 539.353C672.258 541.006 681.906 537.962 688.228 540.902C693.595 543.398 694.848 561.169 694.293 566.41L672.078 548.088L665.317 539.353ZM886.499 539.353C883.804 547.798 871.693 561.385 863.318 564.477L869.114 539.353H886.499ZM712.644 540.319C717.075 540.319 725.8 538.643 729.533 541.312C733.031 543.813 733.825 559.668 730.413 562.371C716.686 573.248 713.313 547.989 712.644 540.319ZM787.981 541.285V563.511C782.53 564.2 763.805 567.736 759.998 562.928C756.616 558.655 759.005 545.644 759.005 540.319L787.981 541.285ZM840.138 540.319C839.631 546.687 838.427 557.047 834.406 562.237C832.34 564.904 825.061 565.81 822.779 562.928C819.505 558.792 821.786 546.427 821.786 541.285L840.138 540.319ZM-7.88933 548.729C-27.1964 555.255 -18.9087 585.41 0.80269 578.979C19.0626 573.021 11.0163 542.338 -7.88933 548.729ZM345.616 568.342C344.399 570.069 343.238 571.67 341.696 573.14C325.746 588.357 328.605 550.389 340.472 561.738C342.446 563.626 343.952 566.184 345.616 568.342ZM501.12 558.679C503.25 559.505 505.093 560.333 506.815 561.911C521.41 575.289 487.79 580.754 496.545 565.445C497.885 563.102 499.603 560.911 501.12 558.679ZM417.094 560.648C427.168 559.674 428.213 576.39 418.056 578.056C407.652 579.763 407.568 561.568 417.094 560.648ZM1007.23 579.462C987.321 582.322 991.414 612.604 1011.1 610.175C1030.87 607.736 1026.86 576.642 1007.23 579.462ZM674.975 591.534L686.273 614.726L686.566 666.907C681.47 666.907 672.035 665.086 667.626 667.9C660.981 672.141 654.108 693.167 652.761 700.728H916.441C913.397 691.193 896.052 671.014 886.499 667.49C880.27 665.192 870.886 666.907 864.284 666.907L865.543 613.759L878.772 591.534H674.975ZM177.557 610.573C164.57 614.989 164.771 635.341 178.522 638.503C190.005 641.143 204.412 638.884 216.191 638.884H295.391H546.516H633.443C641.809 638.884 658.637 642.091 665.048 635.716C672.549 628.257 668.478 613.149 657.59 611.932C626.558 608.462 593.214 611.827 561.969 611.827C471.45 611.827 381.086 610.86 290.562 610.86C266.49 610.86 242.17 611.876 218.122 610.822C206.083 610.295 189.183 606.62 177.557 610.573ZM789.913 666.907H774.459V634.052L772.91 622.073L760.937 620.524H728.098L729.064 654.345L727.515 666.324L714.576 666.907V626.322C714.576 622.525 713.085 614.581 715.568 611.444C718.564 607.66 727.952 610.647 731.961 610.822C746.071 611.441 760.334 610.86 774.459 610.86C778.237 610.86 787.212 609.237 789.886 612.544C792.251 615.469 790.885 622.774 790.879 626.322C790.857 639.808 789.913 653.355 789.913 666.907ZM833.377 667.873L820.572 666.88L818.889 652.412V610.86C822.292 610.228 829.801 608.18 832.384 611.444C834.868 614.581 833.377 622.525 833.377 626.322V667.873ZM-27.2066 660.143L-23.3431 675.604L42.3355 655.311L38.4721 640.816L-27.2066 660.143ZM964.734 644.682L952.178 688.166L992.744 704.037L1014.96 711.358L1029.45 665.941L1015.92 663.042L1006.27 692.032L993.71 688.166L1001.44 666.907L988.881 662.076C987.721 666.326 984.762 680.341 979.971 681.468C977.173 682.125 973.331 679.952 970.529 679.469L979.222 649.513L964.734 644.682ZM199.771 651.446C199.771 696.38 224.943 742.318 258.689 771.005C275.714 785.476 294.261 794.897 313.724 805.356C321.346 809.452 316.802 819.758 326.303 822.821C342.537 828.056 364.452 824.418 381.353 824.418H488.564C500.266 824.418 521.483 826.146 517.54 807.99C580.857 781.616 636.141 724.898 636.341 652.412L199.771 651.446ZM264.484 696.863H265.45C269.938 683.697 280.081 673.798 294.426 672.792C312.058 671.554 328.863 687.144 322.05 705.56C317.849 716.916 295.406 727.849 294.733 708.463C294.4 698.85 315.093 706.688 308.905 692.07C300.574 672.393 277.627 691.355 275.423 704.594C270.169 736.141 309.804 754.117 335.958 748.186C372.799 739.832 398.129 702.979 418.056 673.671C427.687 678.564 435.562 694.1 442.091 702.661C456.869 722.04 476.909 743.735 502.086 748.446C519.866 751.774 540.986 745.134 553.098 731.637C562.589 721.06 566.448 704.792 556.629 693.088C549.353 684.415 523.306 680.519 527.52 698.777C529.289 706.439 547.543 700.824 541.379 713.276C533.073 730.051 513.724 710.884 513.705 698.796C513.647 663.007 561.45 669.796 570.662 696.863C575.602 687.028 577.919 676.139 588.048 669.8C595.319 665.25 605.087 665.128 609.297 673.671C584.733 670.181 579.911 706.697 572.727 722.954C561.425 748.53 535.724 763.243 507.881 762.559C483.338 761.956 460.774 745.434 445.25 727.785C439.184 720.889 433.72 713.536 427.792 706.53C425.678 704.031 422.938 700.159 419.298 699.992C415.172 699.802 412.098 705.736 409.885 708.459C402.887 717.069 396.014 725.767 388.114 733.58C364.761 756.675 332.263 769.809 300.221 757.678C284.614 751.769 271.412 739.229 264.809 723.92C256.384 704.387 253.112 676.121 227.781 672.705C240.856 651.316 263.279 683.145 264.484 696.863ZM-14.6504 698.796L-8.8552 713.291L29.7793 696.863L9.75257 725.853L2.44971 736.569L9.49619 752.91L72.2772 725.853L65.5162 711.358L23.9841 729.718L45.5133 699.762L53.9974 686.234L50.0624 673.671L26.8817 681.343L-14.6504 698.796ZM384.251 685.267C367.207 680.404 362.627 686.639 363.968 703.627C359.468 699.985 354.724 694.314 354.767 688.166C354.835 678.569 365.517 670.503 374.588 675.079C378.801 677.204 381.868 681.328 384.251 685.267ZM472.144 704.594C477.146 690.817 472.59 676.739 455.725 685.267C462.035 663.401 492.895 677.14 480.596 695.897C478.311 699.383 475.515 702.199 472.144 704.594ZM938.656 718.122L977.29 737.449V738.415H942.519L928.36 739.408L922.236 750.977L979.222 781.899L985.983 769.337L954.109 751.943V750.977L997.573 749.045L1003.37 733.583L961.836 713.052L946.508 706.36L938.656 718.122ZM257.723 733.583C251.667 731.001 245.539 725.721 244.201 719.089C250.322 720.955 254.968 728.051 257.723 733.583ZM591.911 719.089C590.633 725.428 585.728 729.49 580.321 732.617L589.014 719.089H591.911ZM695.258 724.886C700.497 733.484 723.909 730.684 732.927 730.684C765.876 730.684 800.715 733.756 833.377 729.307C841.536 728.196 859.249 729.348 864.284 721.988C809.765 717.231 749.356 714.39 695.258 724.886ZM337.889 723.92C339.025 725.537 340.576 727.141 341.446 728.92C347.623 741.563 322.152 736.828 333.258 726.16C334.683 724.79 336.068 724.436 337.889 723.92ZM501.12 723.92C502.275 725.115 503.799 726.396 504.701 727.829C511.861 739.205 487.973 738.805 497.439 726.953C498.47 725.661 499.806 724.869 501.12 723.92ZM420.954 758.708C417.64 757.151 415.588 754.874 412.951 752.367C410.699 750.226 406.792 748.126 405.67 745.093C404.404 741.673 408.236 738.607 410.334 736.483C412.257 734.535 415.011 730.884 418.052 730.884C422.36 730.884 432.628 742.772 431.185 747.025C429.705 751.385 423.676 754.916 420.954 758.708ZM21.0865 772.236C23.614 786.247 37.3642 802.923 51.0283 806.981C67.8055 811.964 89.9272 799.654 94.6963 782.866C99.3166 766.601 87.3972 753.943 80.97 740.348C59.8469 745.183 40.5865 763.128 21.0865 772.236ZM637.307 753.876C641.924 761.207 657.699 759.051 665.317 759.95C692.018 763.102 729.568 766.428 755.142 756.775C747.506 750.521 733.511 752.312 724.234 751.905C696.614 750.695 664.261 746.741 637.307 753.876ZM389.08 757.741C397.752 780.914 361.515 784.472 347.548 776.102C363.954 771.239 374.634 767.623 389.08 757.741ZM449.929 758.708C461.335 768.581 476.204 775.445 491.461 776.102V778.034C481.387 778.117 467.022 782.663 457.656 777.865C450.871 774.389 445.083 765.805 449.929 758.708ZM42.3355 778.034C47.1036 775.221 51.9102 772.446 56.8234 769.894C60.3813 768.045 63.8395 766.025 67.4479 764.271C76.9759 759.639 82.0909 770.288 79.3737 779C73.3307 798.376 47.6342 796.05 42.3355 778.034ZM911.612 764.506L902.919 777.068L957.973 814.754H958.939L967.632 801.226C950.369 789.575 931.005 771.862 911.612 764.506ZM72.2772 847.609H74.209C80.7613 840.164 89.7357 834.639 97.3897 828.363C102.091 824.509 107.027 820.953 111.878 817.292C115.461 814.587 123.585 810.217 125.152 805.879C126.55 802.01 119.705 794.048 115.727 794.628C111.034 795.312 105.749 801.15 102.219 804.044C93.726 811.008 84.7834 817.437 76.1407 824.215C72.9547 826.713 66.0874 830.07 64.8701 834.168C63.6425 838.301 70.0475 844.495 72.2772 847.609ZM902.919 847.609C902.919 851.25 901.536 858.523 903.911 861.521C906.903 865.298 915.932 861.805 919.338 860.264C930.539 855.199 940.44 843.191 938.755 830.216C936.327 811.526 918.432 810.833 904.851 817.963C900.9 820.037 892.289 827.624 888.225 822.177C882.45 814.438 899.206 810.513 901.926 806.542C903.972 803.556 902.919 797.919 902.919 794.462C882.744 794.631 857.81 823.831 880.708 839.2C896.667 849.911 906.337 826.235 920.198 829.574C925.121 830.76 923.264 836.509 921.064 839.378C916.803 844.933 909.634 847.466 902.919 847.609ZM128.297 904.622C135.98 888.4 144.356 872.539 152.01 856.306C154.107 851.859 160.269 843.791 157.607 838.912C155.865 835.719 151.371 830.07 147.6 829.366C143.478 828.597 137.766 832.225 134.092 833.809C123.397 838.423 112.655 843.163 102.219 848.336C98.4424 850.208 85.7038 853.792 84.7194 858.291C84.0069 861.548 89.7959 867.008 92.7243 867.416C97.3774 868.064 101.455 862.878 106.082 864.381C110.588 865.845 121.891 876.446 121.791 881.431C121.708 885.598 116.81 888.745 117.555 893.026C118.365 897.68 124.702 902.089 128.297 904.622ZM232.61 848.576C235.035 857.011 246.409 857.528 253.859 858.511C274.406 861.222 294.965 864.26 315.675 865.014C388.889 867.679 461.795 865.844 534.925 864.051C553.9 863.586 573.111 861.07 591.911 858.364C597.111 857.616 608.224 856.714 611.506 852.078C616.27 845.35 594.111 844.57 590.945 844.154C573.718 841.889 555.828 845.172 538.789 842.572C530.21 841.263 524.182 833.089 515.608 832.25C493.031 830.039 468.927 834.078 446.066 833.077C416.75 831.792 387.481 832.382 358.172 833.101C345.98 833.4 332.455 830.474 320.504 832.355C312.484 833.618 306.522 841.016 298.289 842.46C277.418 846.122 252.226 838.711 232.61 848.576ZM853.66 838.913L844.201 849.546L854.626 862.104L886.499 894.959C890.606 893.366 897.974 888.704 897.214 883.363C896.541 878.639 889.499 873.536 886.224 870.319C875.69 859.97 865.726 847.417 853.66 838.913ZM138.922 847.609L130.229 866.936L119.604 856.306L138.922 847.609ZM829.513 860.172C826.776 862.887 819.424 867.444 819.899 871.782C820.297 875.417 824.295 878.864 826.567 881.431C834.82 890.753 854.735 907.994 840.12 919.702C831.453 926.646 824.611 919.158 819.215 912.349C814.083 905.873 808.978 899.327 803.527 893.114C801.808 891.154 799.565 887.783 796.584 888.018C792.419 888.346 788.06 893.332 785.084 895.925V896.892C795.942 908.686 807.688 931.872 823.718 936.704C843.297 942.605 863.653 925.752 861.209 905.589C859.492 891.43 840.535 868.611 829.513 860.172ZM181.42 865.003L154.294 897.858L140.853 917.184L151.474 923.787L159.089 917.184L175.625 894.959H176.59C177.216 909.526 171.787 926.247 173.84 940.372C174.474 944.737 179.928 949.811 184.279 950.613C189.992 951.665 196.51 938.415 199.437 934.578C205.588 926.517 211.688 918.416 217.923 910.419C219.999 907.756 224.553 903.527 224.008 899.805C223.423 895.81 217.743 892.966 215.225 890.127C205.067 894.97 198.405 910.646 191.078 919.117L192.048 887.229L192.424 874.754L181.42 865.003ZM781.22 925.881L782.186 910.42C768.267 907.835 753.548 911.313 745.454 923.949C732.808 943.693 746.71 973.983 769.63 977.638C782.221 979.646 796.621 972.689 802.778 961.635C804.609 958.347 808.689 949.332 804.784 946.2C802.502 944.37 794.042 943.317 792.014 945.792C785.491 953.751 784.011 966.166 769.63 960.526C755.317 954.912 752.57 935.066 765.767 926.842C771.228 923.44 775.404 924.897 781.22 925.881ZM249.996 987.726L264.484 993.524C267.246 983.858 272.902 968.83 279.938 961.635C280.504 968.817 281.826 975.784 282.834 982.894C283.674 988.814 286.603 1017.57 299.546 1008.92C302.334 1007.05 303.781 1001.32 305.049 998.355L315.675 973.231C317.932 967.962 326.085 956.022 324.545 950.305C323.451 946.248 315.289 944.763 311.811 944.241L298.289 978.063C294.154 969.478 293.207 957.525 291.668 948.107C290.914 943.49 291.039 936.988 287.816 933.261C285.734 930.854 278.854 926.711 275.922 929.405C272.307 932.728 270.637 940.775 268.56 945.208C262.211 958.756 253.936 973.313 249.996 987.726ZM243.235 961.635C244.951 958.796 249.005 954.605 248.738 951.107C248.528 948.358 245.272 946.979 243.231 945.765C238.325 942.847 227.867 933.195 222.111 933.722C218.594 934.043 214.634 941.671 216.27 944.746C218.585 949.095 226.605 951.892 230.679 954.339C234.841 956.839 238.745 959.771 243.235 961.635ZM654.692 961.635C658.115 976.436 664.81 990.783 669.814 1005.12C671.48 1009.89 673.041 1019.37 676.756 1022.86C679.091 1025.05 683.083 1023.05 685.6 1022.18C691.84 1020.03 711.14 1016.18 714.459 1010.44C716.211 1007.4 713.126 1001.62 712.644 998.355L685.6 1006.09L681.736 993.524L702.019 986.76L699.122 974.197L676.907 979.995L673.044 969.366L697.19 960.669L693.327 947.14L654.692 961.635ZM339.821 954.871L327.73 993.524L320.504 1019.61L361.07 1030.24L363.968 1016.72C358.878 1016.09 342.489 1013.52 340.027 1008.58C338.592 1005.7 341.441 1000.51 341.753 997.389L363.002 1002.22L366.865 989.659L346.582 983.861L349.48 973.231L373.134 977.032L377.49 965.501L339.821 954.871ZM615.092 1017.68L607.365 1031.21C625.639 1042.71 663.519 1035.69 654.885 1007.05C649.717 989.911 632.137 999.167 622.038 990.13C612.421 981.523 635.823 982.957 639.238 983.861L645.034 971.298C627.406 963.462 593.081 973.451 606.802 998.352C614.226 1011.82 630.244 1003.51 638.889 1012.38C642.679 1016.27 637.163 1021.07 633.442 1022.09C626.538 1023.99 621.105 1020.16 615.092 1017.68ZM390.046 969.366L376.524 1035.08L391.012 1037.97L394.875 1016.72C402.283 1016.87 409.817 1018.98 417.09 1016.47C432.387 1011.21 438.142 990.475 425.693 979.347C417.627 972.138 400.538 969.845 390.046 969.366ZM552.311 979.995L558.106 1046.67L599.638 1041.84L597.706 1027.35L572.594 1031.21C572.349 1028.13 570.27 1022.86 571.82 1020.03C574.213 1015.68 587.481 1015.94 591.911 1015.75L590.945 1001.25L569.696 1004.15L567.765 992.558L591.911 988.692L589.979 975.164L552.311 979.995ZM457.656 979.029C446.523 998.113 433.824 1022.56 427.715 1043.77C439.683 1046.66 444.606 1045.55 447.998 1033.14C454.307 1034.32 465.565 1032.7 470.909 1036.07C474.15 1038.11 473.73 1042.47 475.591 1045.41C478.512 1050.03 487.07 1048.94 491.461 1047.64L471.178 979.995L457.656 979.029ZM503.052 982.894V1048.6H543.618C543.618 1045.16 544.88 1038.51 542.625 1035.66C539.409 1031.6 523.426 1034.99 518.506 1035.08L517.54 982.894H503.052ZM398.739 1002.22C398.862 999.526 399.301 997.106 399.965 994.49C400.537 992.234 400.766 989.099 402.464 987.346C410.47 979.084 427.88 1003.02 407.431 1003.16C404.505 1003.18 401.63 1002.59 398.739 1002.22ZM463.451 1001.25L468.281 1021.55L454.759 1020.58L461.52 1001.25H463.451Z" fill="white"/>
</g>
</g>
</g>
<defs>
<clipPath id="clip0_1_1708">
<rect width="891" height="890" fill="white" transform="translate(66 67)"/>
</clipPath>
</defs>
</svg>
